<?xml version="1.0" encoding="utf-8"?>
<!-- Generator: Adobe Illustrator 19.2.1, SVG Export Plug-In . SVG Version: 6.00 Build 0)  -->
<svg version="1.1" id="layer" xmlns="http://www.w3.org/2000/svg" xmlns:xlink="http://www.w3.org/1999/xlink" x="0px" y="0px"
	 viewBox="0 0 652 652" style="enable-background:new 0 0 652 652;" xml:space="preserve">
<style type="text/css">
	.st0{fill:#808285;}
	.st1{fill:#0A67B2;}
</style>
<path class="st0" d="M60.8,453.1H20.3V399h40.5v9.8H30.4v12.5h29.3v9.5H30.4v12.2h30.4V453.1z M113.6,399h10v54.2h-6.3l-28.5-36.5
	v36.4H78.6V399h8.3l26.5,33.6V399L113.6,399z M154.8,408.2h-17.2V399h44.5v9.2H165v44.9h-10.1v-44.9H154.8z M236.3,453.1h-40.4V399
	h40.4v9.8H206v12.5h29.3v9.5H206v12.2h30.3V453.1z M300,453.1h-12.1L272,435h-9.8v18.2h-10.3V399h25.8c12.8,0.1,19.4,8.6,19.4,18
	c0,7.3-3.3,14.8-13.6,16.9l16.4,18.5V453.1L300,453.1z M262.3,408.6v17.2h15.5c6.5,0,9.3-4.3,9.3-8.6s-2.8-8.6-9.2-8.6H262.3
	L262.3,408.6z M337.3,437.2h-15.3v15.9h-10.2V399h25.5C363.8,399,363.8,437.2,337.3,437.2z M322.1,427.8h15.3c13.1,0,13-19.1,0-19.1
	h-15.3L322.1,427.8L322.1,427.8z M419.7,453.1h-12.1L391.8,435H382v18.2h-10.2V399h25.7c12.8,0.1,19.5,8.6,19.5,18
	c0,7.3-3.4,14.8-13.6,16.9l16.4,18.5V453.1L419.7,453.1z M382,408.6v17.2h15.5c6.5,0,9.3-4.3,9.3-8.6s-2.9-8.6-9.3-8.6H382z
	 M431.8,453.1V399h10.1v54.1H431.8z M494,412.1c-1.9-3.1-6.9-6-12.8-6c-7.5,0-11.3,3.1-11.3,7.2c0,4.8,5.6,6.1,12.1,6.9
	c11.3,1.4,21.8,4.4,21.8,17.2c0,12-10.6,17.2-22.7,17.2c-11,0-19.5-3.4-23.5-13.3l8.5-4.4c2.4,5.9,8.6,8.6,15.2,8.6
	c6.4,0,12.5-2.3,12.5-8.1c0-5-5.4-7.2-12.5-8c-11.1-1.3-21.3-4.3-21.3-16.4c0-11.1,11-15.7,20.9-15.8c8.4,0,17.2,2.4,21.3,10.8
	L494,412.1L494,412.1z M559.8,453.1h-40.5V399h40.5v9.8h-30.4v12.5h29.3v9.5h-29.3v12.2h30.4V453.1z M610.4,412.1
	c-1.9-3.1-6.9-6-12.8-6c-7.5,0-11.1,3.1-11.1,7.2c0,4.8,5.6,6.1,12,6.9c11.3,1.4,21.8,4.4,21.8,17.2c0,12-10.6,17.2-22.7,17.2
	c-11.1,0-19.6-3.4-23.6-13.3l8.5-4.4c2.3,5.9,8.6,8.6,15.2,8.6c6.4,0,12.5-2.3,12.5-8.1c0-5-5.4-7.2-12.5-8
	c-11.1-1.3-21.3-4.3-21.3-16.4c0-11.1,11-15.7,20.9-15.8c8.4,0,17.2,2.4,21.3,10.8L610.4,412.1L610.4,412.1z"/>
<g>
	<path class="st1" d="M112.3,303.8H163l12.1-39.1h-62.8v-34.4h74.9l12.1-39.3H64.3v180.6h48 M354.8,281.8c5.9,5,14.7,10.1,26.5,15.5
		c13,5.8,21,9.7,24,11.6c3,1.9,5.2,3.8,6.6,5.6c1.4,1.9,2.1,4,2.1,6.5c0,3.9-1.7,7.2-5,9.7c-3.4,2.5-8.8,3.8-16,3.8
		c-8.4,0-17.7-1.3-27.7-4c-10-2.7-19.7-6.4-29.1-11.3l18.3,52.5c0,0,25.4,2.5,37.4,2.5c14.4,0,26.9-2.5,37.7-7.3
		c10.6-4.8,18.9-11.6,24.6-20.3s8.6-18.7,8.6-29.9c0-12.3-3-22.4-9.1-30.4c-6.1-8-16.9-15.5-32.4-22.5
		c-10.6-4.9-39.9-13.4-34.7-30.1c6.6-21.3,45.6-5.1,58.2,0.6l-11.6-42.7c0,0-8.9-3.4-27.5-3.4c-21.3,0-37.9,4.6-50,13.9
		c-12.1,9.3-18.2,22.3-18.2,38.9c0,8.9,1.4,16.6,4.3,23.2c2.8,6.4,7.1,12.2,13,17.2V281.8z M486.1,233.9v137.7h48.8V233.9h49.5v-43
		H446l11.1,43"/>
	<path class="st1" d="M209.9,371.6c6.6-26.4,33.8-47.2,61-58.1l15.7,58.1H340L317.7,304c20.7-1.1,38.5,2.1,59.5,10.6
		c-21.9-22.9-45.7-32.7-67.7-35.7l-29.1-88.7h-65.1l-58.9,181.3L209.9,371.6L209.9,371.6z M262.3,281.5
		c-15.9,3.8-27.4,9.4-31.3,11.3l17.1-63.9L262.3,281.5z"/>
</g>
</svg>
