<svg xmlns="http://www.w3.org/2000/svg" version="1.1" xmlns:xlink="http://www.w3.org/1999/xlink" xmlns:svgjs="http://svgjs.dev/svgjs" width="300" height="301" viewBox="0 0 1500 1505"><g transform="matrix(1,0,0,1,0,-2.6772922966187025)"><svg viewBox="0 0 280 281" data-background-color="#ffffff" preserveAspectRatio="xMidYMid meet" height="1505" width="1500" xmlns="http://www.w3.org/2000/svg" xmlns:xlink="http://www.w3.org/1999/xlink"><g id="tight-bounds" transform="matrix(1,0,0,1,0,0.500120175847286)"><svg viewBox="0 0 280 280" height="280" width="280"><g><svg viewBox="0 0 280 280" height="280" width="280"><g><svg viewBox="0 0 280 280" height="280" width="280"><g id="textblocktransform"><svg viewBox="0 0 280 280" height="280" width="280" id="textblock"><g><svg viewBox="0 0 280 280" height="280" width="280"><g transform="matrix(1,0,0,1,57.50420886156945,57.50420886156945)"><svg viewBox="0 0 164.9915822768611 164.9915822768611" height="164.9915822768611" width="164.9915822768611"><g id="icon-0"><circle r="82" cx="82.49579113843055" cy="82.49579113843055" fill="#ee3e38" data-fill-palette-color="accent"></circle><svg version="1.1" xmlns="http://www.w3.org/2000/svg" xmlns:xlink="http://www.w3.org/1999/xlink" x="24.74873734152917" y="24.748737341529164" viewBox="0 0 100 58.1" enable-background="new 0 0 100 58.1" xml:space="preserve" id="jxe-0" width="115.49410759380275" height="115.49410759380275" class="icon-jxe-0" data-fill-palette-color="quaternary"><path d="M69.987 1.618A1.744 1.744 0 0 0 68.25 0H1.75C0.828 0 0.081 0.714 0.013 1.618L0 46.55C0 47.517 0.783 48.3 1.75 48.3H68.25A1.75 1.75 0 0 0 70 46.55zM3 3.1H67V39.9H3z" fill="#ffffff" data-fill-palette-color="quaternary"></path><path d="M46.2 56.7C43.4 56 42.7 53.899 42.7 51.099H27.3C27.3 53.899 26.6 55.999 23.8 56.7 23.121 56.869 23.1 58.099 23.8 58.099H46.2C46.9 58.1 46.879 56.869 46.2 56.7" fill="#ffffff" data-fill-palette-color="quaternary"></path><path d="M97 0.1H80C78.483 0.1 77 1.818 77 3.1V55.1C77 56.382 78.483 58.1 80 58.1H97C98.517 58.1 100 56.382 100 55.1V3.1C100 1.817 98.517 0.1 97 0.1M98.001 55.083C97.961 55.394 97.365 56.1 97 56.1H80C79.635 56.1 79.039 55.394 78.999 55.083L79 53.1H98zM79 5.1L78.999 3.117C79.039 2.806 79.635 2.1 80 2.1H97C97.365 2.1 97.961 2.806 98.001 3.117L98 5.1z" fill="#ffffff" data-fill-palette-color="quaternary"></path></svg></g></svg></g><g id="text-0"><path d="M31.258 99.955v0c0.656-0.852 1.165-1.781 1.529-2.789v0c0.412-1.143 0.62-2.272 0.624-3.387 0.004-1.116-0.153-2.188-0.472-3.217-0.322-1.038-0.781-2.008-1.375-2.913v0c-0.405-0.647-0.879-1.253-1.422-1.819v0c0.514 0.505 0.998 1.053 1.452 1.645v0c0.645 0.827 1.144 1.744 1.499 2.75 0.355 1.006 0.542 2.086 0.562 3.239 0.021 1.147-0.197 2.356-0.656 3.627v0l-0.156 0.433c-0.655 1.817-1.633 3.248-2.932 4.296-1.291 1.043-2.727 1.776-4.309 2.199-1.575 0.425-3.221 0.572-4.935 0.439-1.713-0.139-3.326-0.482-4.842-1.028v0c-0.635-0.229-1.298-0.505-1.987-0.826-0.689-0.321-1.357-0.722-2.004-1.202-0.644-0.486-1.237-1.056-1.777-1.708-0.547-0.655-0.979-1.438-1.296-2.35v0c-0.258-0.732-0.423-1.491-0.495-2.279-0.08-0.783-0.023-1.514 0.171-2.191v0c0.019 0.087 0.052 0.138 0.096 0.155v0c0.09 0.032 0.201 0.015 0.335-0.054 0.131-0.062 0.254-0.071 0.37-0.029v0l0.058 0.02c0.09 0.032 0.14 0.105 0.15 0.218 0.008 0.119 0.011 0.301 0.009 0.547-0.002 0.246 0.011 0.573 0.038 0.982 0.029 0.402 0.106 0.902 0.232 1.499v0c0.183-0.086 0.307-0.118 0.371-0.095v0c-0.068-0.496-0.084-0.933-0.049-1.313 0.044-0.383 0.122-0.729 0.233-1.036v0c0.229-0.635 0.505-1.058 0.828-1.269 0.32-0.204 0.535-0.286 0.643-0.246v0c0.173 0.063 0.268 0.253 0.284 0.57 0.012 0.309 0.032 0.675 0.061 1.099 0.037 0.42 0.122 0.878 0.254 1.376 0.128 0.489 0.416 0.937 0.864 1.346v0c0.399 0.543 0.963 1.051 1.692 1.524 0.722 0.471 1.488 0.852 2.296 1.144v0c1.386 0.5 2.707 0.792 3.961 0.875 1.261 0.085 2.417-0.024 3.47-0.326 1.052-0.302 1.966-0.803 2.74-1.503 0.775-0.7 1.36-1.598 1.757-2.696v0c0.38-1.053 0.456-2.099 0.229-3.139-0.221-1.037-0.677-2.014-1.369-2.931-0.698-0.919-1.592-1.75-2.681-2.491-1.083-0.739-2.304-1.354-3.666-1.845v0c-0.661-0.239-1.327-0.435-1.996-0.59-0.676-0.157-1.354-0.228-2.035-0.212-0.674 0.018-1.347 0.134-2.019 0.349-0.672 0.214-1.346 0.574-2.021 1.077v0c-0.744 0.675-1.304 1.242-1.68 1.701-0.376 0.459-0.651 0.657-0.824 0.595v0c-0.064-0.023-0.125-0.096-0.182-0.218v0c0.634-1.012 1.385-1.858 2.254-2.539v0c0.799-0.626 1.702-1.069 2.71-1.329v0c-1.114 0.273-2.046 0.694-2.796 1.266v0c-0.846 0.616-1.625 1.427-2.336 2.432v0c-0.07-0.148-0.146-0.238-0.23-0.268v0c-0.09-0.032-0.224 0.097-0.401 0.389-0.186 0.295-0.389 0.614-0.606 0.956-0.224 0.34-0.458 0.647-0.703 0.922-0.248 0.266-0.472 0.363-0.671 0.291v0c-0.237-0.086-0.34-0.344-0.308-0.775 0.028-0.44 0.071-0.972 0.13-1.596v0c0.056-0.154 0.128-0.295 0.218-0.422 0.096-0.125 0.186-0.234 0.27-0.327v0c0.588-1.007 1.309-1.907 2.161-2.702 0.859-0.793 1.824-1.435 2.894-1.927 1.072-0.498 2.245-0.815 3.52-0.95 1.281-0.133 2.63-0.03 4.046 0.307v0c-1.336-0.359-2.622-0.493-3.859-0.403-1.235 0.084-2.406 0.354-3.514 0.811-1.101 0.459-2.121 1.092-3.058 1.9-0.935 0.802-1.763 1.718-2.483 2.75v0c0.366-1.014 0.931-1.946 1.694-2.795 0.766-0.855 1.691-1.559 2.775-2.111 1.078-0.554 2.298-0.93 3.661-1.128 1.365-0.204 2.83-0.172 4.395 0.095v0c-0.016 0.045-0.023 0.115-0.022 0.21 0 0.101-0.009 0.175-0.025 0.22v0c1.189 0.204 2.309 0.496 3.362 0.876v0c1.541 0.556 2.96 1.337 4.259 2.342 1.301 0.999 2.365 2.152 3.192 3.458 0.836 1.303 1.376 2.731 1.62 4.285 0.245 1.554 0.067 3.162-0.533 4.824v0c-0.357 0.989-0.846 1.904-1.469 2.745-0.629 0.839-1.332 1.58-2.107 2.222v0c0.061-0.029 0.114-0.035 0.159-0.019v0c0.039 0.014 0.038 0.075-0.001 0.184v0c0.827-0.623 1.552-1.355 2.174-2.197zM24.153 82.734v0c0.812 0.424 1.637 0.903 2.474 1.437 0.835 0.541 1.627 1.149 2.377 1.826 0.75 0.677 1.407 1.429 1.972 2.256v0c0.554 0.817 0.969 1.699 1.243 2.647v0c-0.255-0.941-0.643-1.828-1.162-2.661v0c-0.541-0.834-1.181-1.602-1.922-2.304-0.74-0.702-1.56-1.336-2.459-1.899-0.902-0.557-1.826-1.032-2.772-1.425v0c0.057 0.042 0.14 0.083 0.249 0.123zM25.108 86.06v0c0.772 0.474 1.486 1.029 2.141 1.665 0.649 0.633 1.184 1.334 1.603 2.102v0c-0.391-0.787-0.906-1.491-1.544-2.114-0.643-0.631-1.376-1.182-2.2-1.653zM22.874 81.423l0.558 0.202c0.379 0.137 0.756 0.298 1.131 0.484v0c0.365 0.154 0.739 0.325 1.121 0.513v0c-0.372-0.134-0.781-0.307-1.227-0.519v0c-0.465-0.219-0.983-0.431-1.555-0.637v0l-0.597-0.215c0.187 0.046 0.376 0.103 0.569 0.172zM25.108 86.06v0c-0.442-0.283-0.9-0.542-1.374-0.779-0.476-0.23-0.964-0.435-1.464-0.615v0c-0.552-0.199-1.125-0.37-1.72-0.512v0c0.251 0.069 0.488 0.136 0.711 0.202 0.223 0.066 0.456 0.143 0.7 0.231v0c1.117 0.403 2.166 0.894 3.147 1.473zM25.752 82.647l0.125 0.045 1.51 0.882c0.352 0.25 0.701 0.5 1.046 0.748 0.346 0.248 0.677 0.516 0.994 0.804v0c-0.592-0.489-1.2-0.937-1.822-1.343-0.62-0.412-1.238-0.791-1.853-1.136zM29.161 102.148v0c-0.019-0.007-0.045-0.005-0.077 0.004v0c0.026 0.009 0.052 0.008 0.077-0.004zM29.427 85.126v0c0.074 0.077 0.139 0.137 0.196 0.18v0c-0.057-0.042-0.123-0.102-0.196-0.18zM30.085 85.777v0c-0.048-0.068-0.099-0.127-0.155-0.175v0c0.055 0.049 0.106 0.107 0.155 0.175zM16.18 83.992v0c-0.045 0.005-0.099 0.022-0.16 0.051v0c0.052-0.003 0.105-0.02 0.16-0.051zM29.623 85.306v0c0.093 0.084 0.186 0.169 0.279 0.253v0c-0.093-0.084-0.186-0.169-0.279-0.253z" fill="#ee3e38" data-fill-palette-color="primary"></path><path d="M62.079 46.518v0c-0.427 1.026-0.936 2.009-1.528 2.949-0.597 0.935-1.288 1.802-2.074 2.599v0c-0.719 0.729-1.506 1.362-2.361 1.898-0.855 0.527-1.753 0.903-2.692 1.126-0.939 0.224-1.919 0.264-2.937 0.122-1.029-0.142-2.074-0.507-3.135-1.092v0c0.786 0.67 1.61 1.089 2.47 1.256 0.87 0.168 1.75 0.173 2.642 0.018 0.892-0.156 1.765-0.435 2.621-0.836 0.851-0.397 1.637-0.815 2.358-1.255v0c0.101-0.063 0.226-0.17 0.374-0.321v0c0.968-0.982 1.762-1.952 2.383-2.912 0.616-0.965 1.243-1.951 1.883-2.959v0c-0.05 0.478-0.179 0.983-0.388 1.516-0.213 0.527-0.482 1.063-0.806 1.605-0.324 0.552-0.694 1.098-1.111 1.636-0.416 0.539-0.861 1.048-1.335 1.53v0l-0.273 0.277c-0.081 0.083-0.173 0.156-0.274 0.219v0l-0.493-0.142c-0.657 0.531-1.421 1.004-2.292 1.421-0.875 0.421-1.79 0.693-2.744 0.815-0.955 0.123-1.918 0.059-2.89-0.189-0.962-0.249-1.851-0.776-2.667-1.581v0c-0.68-0.671-1.252-1.417-1.717-2.239-0.469-0.817-0.863-1.68-1.183-2.591v0c0 0.039-0.016 0.075-0.05 0.109v0c-0.048 0.049-0.106 0.039-0.174-0.027v0c0.305 0.886 0.676 1.749 1.111 2.59 0.43 0.837 1.02 1.624 1.768 2.362v0c0.797 0.786 1.684 1.301 2.66 1.545 0.976 0.234 1.925 0.307 2.846 0.219 0.926-0.084 1.784-0.263 2.573-0.54v0c0.708-0.251 1.268-0.484 1.682-0.699v0c-0.659 0.367-1.392 0.678-2.201 0.935v0c-0.857 0.267-1.739 0.403-2.647 0.409-0.907 0.006-1.813-0.139-2.717-0.437-0.895-0.298-1.709-0.808-2.443-1.532v0c-1.045-1.03-1.835-2.188-2.369-3.472-0.54-1.28-0.836-2.568-0.889-3.866-0.048-1.293 0.137-2.544 0.553-3.753 0.421-1.204 1.068-2.249 1.94-3.133v0c0.11-0.179 0.275-0.386 0.495-0.619 0.211-0.233 0.39-0.425 0.539-0.576v0c0.639-0.415 1.307-0.81 2.003-1.186 0.697-0.376 1.46-0.683 2.288-0.921v0c-0.038 0.097-0.04 0.186-0.005 0.268 0.034 0.082 0.081 0.171 0.139 0.267 0.059 0.086 0.091 0.175 0.096 0.267 0.015 0.092-0.028 0.188-0.128 0.29v0c-0.081 0.083-0.23 0.18-0.447 0.293-0.211 0.117-0.514 0.279-0.908 0.484v0c0.001 0.097 0.05 0.193 0.147 0.288v0c0.592-0.202 1.091-0.251 1.497-0.148 0.406 0.103 0.726 0.27 0.959 0.5v0c0.117 0.115 0.092 0.34-0.075 0.674v0c-0.211 0.214-0.583 0.508-1.116 0.884-0.533 0.375-1.077 0.845-1.633 1.408v0c-0.249 0.253-0.508 0.539-0.776 0.86-0.273 0.325-0.516 0.674-0.731 1.047-0.224 0.373-0.398 0.763-0.52 1.169-0.118 0.401-0.144 0.802-0.078 1.202v0c0.071 0.463 0.19 0.94 0.357 1.431 0.172 0.496 0.364 0.977 0.575 1.443 0.206 0.471 0.431 0.899 0.675 1.284 0.244 0.384 0.49 0.699 0.738 0.943v0c0.233 0.23 0.601 0.382 1.103 0.455 0.507 0.069 1.055 0.058 1.643-0.033 0.593-0.086 1.197-0.257 1.813-0.512 0.621-0.26 1.151-0.614 1.592-1.061v0c0.216-0.219 0.44-0.515 0.674-0.887 0.234-0.373 0.468-0.766 0.701-1.178 0.224-0.412 0.458-0.809 0.701-1.192 0.243-0.383 0.473-0.684 0.689-0.902v0c0.196-0.199 0.345-0.306 0.446-0.322 0.096-0.02 0.203 0.028 0.32 0.143v0c-0.242 0.518-0.502 1.048-0.778 1.59v0c-0.181 0.349-0.352 0.688-0.514 1.017v0l0.565-0.966c0.276-0.513 0.545-1.034 0.807-1.562v0c0.083 0.081 0.158 0.151 0.226 0.208 0.078 0.057 0.198 0.085 0.362 0.084v0l0.15-0.341c0.081-0.189 0.154-0.399 0.22-0.631v0c0.326-0.33 0.585-0.525 0.777-0.585 0.188-0.054 0.347-0.017 0.479 0.113v0c0.083 0.081 0.141 0.163 0.175 0.245 0.034 0.082 0.059 0.173 0.075 0.274 0.02 0.096 0.038 0.219 0.053 0.369 0.02 0.145 0.072 0.325 0.156 0.542zM50.172 52.616v0c0.426 0.161 0.906 0.242 1.442 0.243 0.54 0.006 1.083-0.058 1.627-0.192 0.539-0.139 1.064-0.331 1.574-0.576v0c0.495-0.24 0.93-0.535 1.304-0.885v0c-0.36 0.307-0.787 0.575-1.283 0.806v0c-0.505 0.25-1.03 0.442-1.574 0.575-0.549 0.139-1.089 0.215-1.62 0.229-0.536 0.009-1.026-0.058-1.47-0.2zM57.912 48.95v0c0.028-0.068 0.069-0.128 0.122-0.182v0c-0.053 0.053-0.093 0.114-0.122 0.182zM56.441 54.874v0c-0.029 0.029-0.067 0.054-0.115 0.073v0c0.048-0.02 0.087-0.044 0.115-0.073z" fill="#ee3e38" data-fill-palette-color="primary"></path><path d="M95.619 9.459v0c-0.195 0.081-0.447 0.222-0.755 0.424-0.308 0.202-0.611 0.416-0.908 0.643-0.3 0.221-0.567 0.431-0.802 0.631-0.228 0.198-0.368 0.334-0.418 0.407v0c0.524-0.321 0.998-0.639 1.421-0.955 0.429-0.318 0.921-0.593 1.476-0.823v0c-0.026 0.24-0.102 0.449-0.228 0.626-0.126 0.178-0.281 0.338-0.465 0.481-0.181 0.134-0.383 0.27-0.607 0.407-0.22 0.128-0.45 0.279-0.688 0.452v0l-0.339-0.203c-0.347 0.321-0.624 0.543-0.832 0.666-0.201 0.12-0.418 0.229-0.652 0.326v0c-0.258 0.107-0.524 0.214-0.798 0.32-0.276 0.1-0.575 0.216-0.896 0.35v0c0.044 0.107 0.067 0.197 0.068 0.271v0c0.498-0.207 0.919-0.385 1.263-0.535 0.335-0.154 0.739-0.365 1.21-0.635v0c-0.439 0.278-0.829 0.514-1.169 0.707-0.335 0.191-0.751 0.389-1.249 0.595v0c0.125 0.532 0.25 1.049 0.377 1.55 0.133 0.499 0.294 0.975 0.482 1.429v0c0.107 0.258 0.245 0.556 0.414 0.892 0.16 0.333 0.33 0.672 0.511 1.018 0.178 0.34 0.345 0.662 0.501 0.967 0.147 0.301 0.252 0.527 0.315 0.679v0l0.804 1.938c0.288 0.39 0.734 0.586 1.34 0.586 0.606 0 1.394-0.201 2.364-0.605v0l1.04-0.431c0.366-0.152 0.633-0.218 0.804-0.2 0.17 0.018 0.281 0.09 0.333 0.216v0c0.047 0.113-0.013 0.209-0.181 0.286-0.171 0.086-0.342 0.164-0.512 0.234v0c-0.624 0.259-1.298 0.487-2.021 0.684v0c-0.683 0.187-1.359 0.357-2.028 0.508v0c0.684-0.114 1.397-0.247 2.139-0.4v0c0.757-0.188 1.469-0.421 2.138-0.698v0l0.293-0.121c0.088-0.037 0.182-0.087 0.281-0.15v0c0.044 0.107 0.087 0.2 0.127 0.279 0.049 0.083 0.118 0.169 0.207 0.258v0l0.228-0.172c0.061-0.048 0.131-0.095 0.207-0.141 0.086-0.043 0.141-0.096 0.167-0.158v0c0.713-0.222 1.155-0.128 1.325 0.281v0c0.097 0.233 0.113 0.452 0.05 0.655-0.07 0.206-0.184 0.394-0.343 0.564-0.152 0.167-0.342 0.315-0.568 0.446-0.226 0.131-0.447 0.241-0.661 0.33v0c-0.75 0.311-1.507 0.57-2.271 0.776-0.76 0.197-1.509 0.386-2.248 0.566v0c0.694-0.037 1.532-0.181 2.514-0.433 0.979-0.258 1.941-0.584 2.886-0.976v0c-0.17 0.248-0.401 0.484-0.692 0.709-0.285 0.222-0.601 0.404-0.948 0.548v0l-2.447 0.672c-0.321 0.081-0.569 0.133-0.745 0.153-0.182 0.024-0.359 0.042-0.532 0.055-0.175 0.006-0.367 0.015-0.575 0.028-0.209 0.013-0.492 0.042-0.851 0.087v0l-0.149-0.359c-0.624 0.081-1.185 0.011-1.683-0.211-0.492-0.224-0.925-0.51-1.298-0.858-0.373-0.348-0.684-0.732-0.933-1.153-0.246-0.415-0.44-0.793-0.58-1.133v0c-0.152-0.366-0.29-0.707-0.415-1.025-0.118-0.32-0.244-0.641-0.377-0.963v0c-0.099-0.24-0.231-0.539-0.395-0.9-0.158-0.363-0.335-0.744-0.53-1.143-0.189-0.402-0.378-0.814-0.569-1.238-0.19-0.423-0.367-0.83-0.529-1.222v0c-0.099-0.24-0.187-0.469-0.263-0.688-0.076-0.22-0.14-0.418-0.192-0.596v0l-0.321 0.133c0.038 0.162 0.096 0.337 0.173 0.526v0l0.244 0.586c0.259 0.624 0.529 1.24 0.81 1.847 0.273 0.604 0.522 1.161 0.749 1.673 0.227 0.512 0.428 0.953 0.605 1.323 0.182 0.368 0.308 0.637 0.379 0.807v0l0.537 1.295 0.106 0.255c-0.31-0.551-0.72-1.353-1.23-2.404v0c-0.581-1.222-1.185-2.589-1.813-4.102v0l-0.239-0.576c-0.099-0.24-0.187-0.469-0.263-0.689-0.083-0.217-0.124-0.388-0.125-0.514v0l-1.124 0.389c-0.302-0.052-0.588-0.074-0.858-0.065-0.274 0.017-0.508 0.067-0.703 0.148v0l-0.271-0.653c-0.052-0.126-0.084-0.246-0.094-0.36-0.008-0.108 0.077-0.198 0.253-0.271v0c0.044-0.018 0.16-0.041 0.349-0.067v0l-0.161-0.388c-0.294-0.033-0.564-0.132-0.809-0.295-0.239-0.167-0.407-0.367-0.504-0.6v0c-0.233-0.561 0.048-1.006 0.842-1.336v0c0.303-0.126 0.624-0.233 0.964-0.322 0.34-0.089 0.687-0.196 1.041-0.321v0c-0.108-0.509-0.209-0.966-0.303-1.371-0.094-0.404-0.179-0.797-0.256-1.179-0.086-0.385-0.158-0.773-0.216-1.163-0.064-0.387-0.112-0.803-0.142-1.249v0c0.018-0.51-0.026-1.042-0.13-1.597-0.102-0.549-0.234-1.081-0.397-1.597v0l0.687-0.241c0.107-0.044 0.212-0.051 0.314-0.019 0.102 0.032 0.202 0.167 0.301 0.407v0c0.081 0.195 0.157 0.467 0.227 0.814v0l0.427-0.066c-0.07-0.65-0.055-1.211 0.045-1.681 0.094-0.468 0.261-0.751 0.501-0.85v0c0.366-0.152 0.785 0.217 1.257 1.107v0l0.239 0.577c0.233 0.561 0.412 1.1 0.538 1.617 0.126 0.517 0.23 1.035 0.313 1.554 0.089 0.517 0.183 1.047 0.282 1.59 0.099 0.542 0.228 1.121 0.387 1.734v0c0.499-0.133 0.975-0.294 1.429-0.482v0c0.214-0.089 0.426-0.184 0.635-0.285 0.212-0.095 0.425-0.187 0.639-0.277v0c0.214-0.089 0.405-0.271 0.571-0.547 0.169-0.27 0.348-0.444 0.537-0.522v0c0.176-0.073 0.328-0.073 0.454 0 0.133 0.071 0.226 0.172 0.282 0.305v0c-0.34 0.267-0.674 0.538-1.003 0.815-0.331 0.27-0.648 0.531-0.95 0.782v0c0.331-0.182 0.667-0.413 1.008-0.696 0.335-0.279 0.694-0.561 1.079-0.846v0c0.044 0.107 0.091 0.202 0.14 0.285 0.047 0.077 0.114 0.16 0.203 0.249v0c0.044-0.018 0.094-0.05 0.149-0.095v0c0.108-0.096 0.174-0.15 0.199-0.161v0c0.259 0.018 0.454 0.096 0.585 0.234 0.131 0.138 0.236 0.301 0.314 0.49v0c0.063 0.151 0.1 0.295 0.112 0.43 0.006 0.138 0.027 0.251 0.063 0.34zM91.999 24.935v0c-0.543-0.454-0.944-0.957-1.202-1.508-0.252-0.553-0.503-1.07-0.753-1.549v0l-2.329-4.785 0.145 0.616c0.599 1.443 1.193 2.734 1.783 3.87 0.581 1.133 1.104 1.984 1.568 2.552v0c0.078 0.189 0.126 0.321 0.142 0.396 0.014 0.068 0.029 0.124 0.048 0.168v0c0.018 0.044 0.069 0.086 0.152 0.126 0.077 0.042 0.225 0.08 0.446 0.114zM93.121 22.43v0c-0.117-0.158-0.217-0.335-0.298-0.53v0l-0.655-1.579c0.064 0.225 0.129 0.445 0.197 0.661 0.065 0.21 0.142 0.421 0.231 0.636v0c0.233 0.561 0.443 0.98 0.631 1.256v0c0.17 0.232 0.388 0.393 0.655 0.482v0c-0.159-0.082-0.293-0.189-0.4-0.322v0c-0.096-0.16-0.216-0.361-0.361-0.604zM89.844 23.479l0.122 0.216zM93.964 23.366v0c-0.036-0.015-0.063-0.018-0.082-0.01v0c0.019-0.008 0.046-0.004 0.082 0.01z" fill="#ee3e38" data-fill-palette-color="primary"></path><path d="M146.174 10.462v0c-0.628-0.004-1.102-0.017-1.423-0.039-0.314-0.029-0.597-0.045-0.849-0.047v0c-0.703-0.004-1.321 0.029-1.853 0.101-0.539 0.065-0.998 0.202-1.374 0.411-0.377 0.202-0.658 0.504-0.845 0.906-0.187 0.395-0.282 0.916-0.287 1.565v0c-0.006 0.962 0.099 1.669 0.315 2.12 0.222 0.459 0.538 0.788 0.946 0.989 0.401 0.2 0.895 0.326 1.481 0.378 0.58 0.051 1.231 0.161 1.954 0.329v0c0.423 0.05 0.842 0.08 1.258 0.09 0.423 0.016 0.843 0.026 1.259 0.028v0l2.528 0.016c-1.166-0.076-2.33-0.124-3.49-0.145-1.153-0.021-2.19-0.126-3.109-0.316-0.92-0.19-1.665-0.522-2.236-0.996-0.563-0.468-0.842-1.179-0.836-2.135v0c0.005-0.771 0.107-1.361 0.308-1.769 0.2-0.408 0.468-0.71 0.804-0.906 0.342-0.196 0.746-0.309 1.21-0.34 0.471-0.031 0.973-0.045 1.505-0.042v0c0.655 0.004 1.32 0.042 1.995 0.115v0c-0.533 0.16-1.077 0.28-1.63 0.358-0.546 0.078-1.055 0.157-1.526 0.236-0.465 0.079-0.864 0.182-1.2 0.31-0.342 0.121-0.572 0.3-0.689 0.538v0l-0.01 1.567-0.287 0.141c0.092 0.587 0.178 1.025 0.258 1.312 0.08 0.294 0.307 0.517 0.681 0.669 0.368 0.159 0.967 0.286 1.799 0.38 0.825 0.101 2.032 0.262 3.621 0.483v0l2.518 0.016c0.444 0.003 0.706-0.013 0.789-0.046 0.082-0.04 0.133-0.061 0.153-0.061v0l-0.305-1.885c-0.038-0.471-0.093-0.891-0.166-1.26-0.066-0.376-0.156-0.775-0.269-1.199v0c-0.021 0.075-0.093 0.112-0.216 0.111v0c0.12 0.397 0.22 0.817 0.299 1.261 0.072 0.444 0.138 0.864 0.197 1.26 0.059 0.396 0.105 0.734 0.137 1.014 0.032 0.28 0.072 0.444 0.12 0.492v0l-0.215 0.071c-0.048 0.02-0.116 0.03-0.205 0.029v0l-0.215-0.001c-0.164-0.001-0.351-0.019-0.563-0.055-0.204-0.035-0.471-0.054-0.798-0.056v0l-1.157-0.007c-0.908-0.006-1.747-0.059-2.517-0.159v0c-0.723-0.093-1.353-0.213-1.891-0.36v0c0.538 0.119 1.193 0.216 1.963 0.288v0c0.811 0.101 1.569 0.153 2.272 0.158v0c0.3 0.002 0.621-0.003 0.962-0.015 0.334-0.005 0.703-0.006 1.106-0.003v0l1.146 0.007c-0.068-0.075-0.149-0.114-0.245-0.114v0l-0.061 0c-0.086-1.611-0.287-3.151-0.606-4.62-0.318-1.469-0.836-2.762-1.552-3.879-0.716-1.11-1.656-2.003-2.819-2.679-1.163-0.669-2.618-1.009-4.365-1.02v0c-0.491-0.003-0.983 0.028-1.474 0.093-0.485 0.072-0.987 0.164-1.507 0.277v0c0.048-0.047 0.072-0.095 0.073-0.143v0c0.001-0.116-0.043-0.225-0.131-0.328-0.095-0.11-0.142-0.223-0.141-0.339v0c0.001-0.136 0.148-0.269 0.442-0.396 0.287-0.128 0.913-0.247 1.876-0.357v0c-0.047-0.048-0.078-0.12-0.091-0.216-0.013-0.089-0.019-0.157-0.019-0.205v0c-1.256-0.008-2.235-0.045-2.937-0.11-0.696-0.059-1.043-0.228-1.041-0.508v0c0.001-0.116 0.145-0.279 0.433-0.489 0.295-0.21 0.712-0.412 1.252-0.606 0.533-0.195 1.179-0.365 1.938-0.51 0.758-0.152 1.605-0.225 2.54-0.22v0c1.795 0.011 3.332 0.297 4.611 0.858 1.286 0.554 2.363 1.284 3.231 2.19 0.868 0.899 1.571 1.924 2.11 3.074 0.546 1.143 0.982 2.296 1.31 3.458 0.334 1.155 0.58 2.276 0.736 3.362 0.157 1.086 0.301 2.025 0.433 2.818v0c-0.001 0.143 0.005 0.283 0.018 0.419 0.013 0.143 0.019 0.307 0.017 0.492v0c-0.004 0.676-0.131 1.265-0.379 1.768-0.249 0.497-0.589 0.914-1.022 1.253-0.439 0.332-0.942 0.584-1.509 0.758-0.574 0.174-1.189 0.259-1.844 0.255v0c-0.512-0.003-1.177-0.021-1.996-0.053-0.819-0.026-1.6-0.099-2.342-0.22v0c-0.491-0.119-1.026-0.211-1.606-0.276-0.586-0.065-1.183-0.168-1.789-0.308-0.6-0.147-1.185-0.349-1.757-0.605-0.572-0.263-1.084-0.658-1.538-1.186-0.447-0.528-0.805-1.213-1.073-2.054-0.261-0.841-0.387-1.903-0.379-3.186v0c0.008-1.215 0.293-2.185 0.858-2.912 0.564-0.733 1.24-1.302 2.027-1.707 0.78-0.405 1.581-0.666 2.4-0.783 0.82-0.125 1.485-0.185 1.997-0.183v0c0.655 0.004 1.085 0.051 1.289 0.142 0.211 0.097 0.316 0.193 0.315 0.288v0c0 0.068-0.011 0.126-0.031 0.174v0c-0.587-0.004-1.334 0.016-2.242 0.058-0.915 0.042-1.796 0.187-2.644 0.434-0.855 0.254-1.587 0.642-2.198 1.163-0.611 0.522-0.919 1.26-0.925 2.216v0c0.217-0.865 0.576-1.545 1.078-2.041 0.508-0.502 1.09-0.874 1.747-1.115 0.65-0.242 1.319-0.388 2.009-0.438 0.69-0.057 1.314-0.084 1.873-0.08v0l1.188 0.007c-0.089 0.095-0.134 0.19-0.135 0.286v0c-0.001 0.089 0.043 0.171 0.132 0.246v0l1.371 0.009c0.368 0.071 0.633 0.195 0.796 0.373 0.163 0.172 0.244 0.329 0.243 0.473v0c-0.001 0.205-0.105 0.388-0.311 0.55-0.213 0.162-0.565 0.324-1.057 0.485zM140.246 18.901v0c0.647 0.257 1.314 0.459 2.002 0.606 0.688 0.141 1.37 0.237 2.046 0.289v0c0.675 0.072 1.306 0.111 1.893 0.114v0c-0.471-0.044-0.938-0.129-1.401-0.254v0c-0.491-0.119-0.92-0.224-1.288-0.315v0c-0.402-0.098-0.794-0.165-1.176-0.202-0.382-0.036-0.777-0.094-1.186-0.171-0.409-0.071-0.825-0.183-1.247-0.336-0.415-0.153-0.834-0.384-1.254-0.693v0c0.441 0.399 0.978 0.719 1.611 0.962zM140.474 15.156l0.143 0.072c-0.027-0.027 0.041 0.041 0.203 0.206v0c0.142 0.144 0.329 0.251 0.561 0.321v0c-0.116-0.048-0.289-0.108-0.521-0.177v0c-0.259-0.097-0.387-0.238-0.386-0.422zM141.484 15.756v0c-0.02 0-0.055 0-0.103-0.001v0c0.02 0 0.055 0 0.103 0.001z" fill="#ee3e38" data-fill-palette-color="primary"></path><path d="M190.044 32.006l-2.067-2.488c0.439-2.116 0.827-4.19 1.163-6.219 0.342-2.027 0.668-4.081 0.976-6.163v0c0.14-0.972 0.31-1.906 0.511-2.802 0.204-0.902 0.327-1.848 0.369-2.838v0c0.168 0.029 0.33 0.009 0.485-0.06 0.149-0.072 0.297-0.072 0.444 0v0c0.104 0.051 0.171 0.163 0.2 0.337 0.038 0.171 0.056 0.353 0.051 0.549-0.001 0.189-0.013 0.385-0.035 0.586-0.019 0.196-0.032 0.33-0.037 0.403v0l0.422 0.092c0.079-0.379 0.172-0.743 0.282-1.092 0.103-0.352 0.235-0.694 0.397-1.025v0c0.063-0.129 0.172-0.315 0.328-0.557 0.159-0.249 0.343-0.322 0.552-0.221v0c0.319 0.155 0.525 0.613 0.618 1.371 0.099 0.762 0.113 1.683 0.043 2.765-0.077 1.078-0.198 2.245-0.363 3.501-0.17 1.253-0.353 2.454-0.548 3.604-0.202 1.147-0.387 2.172-0.555 3.077-0.168 0.905-0.291 1.547-0.369 1.927v0c0.884-0.427 1.718-0.916 2.503-1.468 0.791-0.548 1.576-1.107 2.354-1.677 0.785-0.567 1.582-1.112 2.391-1.636 0.819-0.527 1.694-0.977 2.627-1.35v0c0.228-0.094 0.588-0.256 1.08-0.487 0.483-0.228 0.995-0.453 1.536-0.675 0.532-0.219 1.038-0.394 1.519-0.524 0.475-0.133 0.819-0.147 1.034-0.043v0c0.104 0.051 0.16 0.169 0.169 0.356v0c-1.186 0.409-2.366 0.821-3.54 1.236-1.174 0.415-2.3 0.982-3.379 1.701v0c1.077-0.667 2.202-1.201 3.376-1.601 1.171-0.409 2.354-0.773 3.55-1.094v0l0.092 0.512c0.221-0.127 0.558-0.225 1.009-0.294 0.442-0.066 0.779-0.042 1.012 0.072v0c0.166 0.081 0.266 0.194 0.301 0.34 0.035 0.146 0.012 0.302-0.068 0.468v0c-0.072 0.147-0.186 0.327-0.342 0.539-0.157 0.212-0.303 0.35-0.44 0.412v0c-0.176 0.096-0.363 0.161-0.561 0.193v0c-0.998 0.288-1.937 0.548-2.817 0.78-0.876 0.241-1.776 0.615-2.698 1.122v0l0.328-0.113c0.89-0.394 1.752-0.714 2.586-0.961 0.831-0.24 1.732-0.424 2.704-0.549v0c-0.728 0.481-1.464 0.831-2.209 1.052-0.742 0.215-1.518 0.49-2.326 0.825v0c-0.395 0.172-0.765 0.386-1.111 0.644-0.348 0.263-0.726 0.462-1.134 0.597v0l-0.24-0.231c-0.817 0.665-1.659 1.34-2.524 2.027-0.863 0.68-1.752 1.321-2.668 1.922-0.918 0.608-1.871 1.138-2.858 1.591-0.987 0.453-2.005 0.773-3.053 0.961v0c-0.124 0.099-0.31 0.145-0.557 0.138-0.241-0.004-0.43 0.003-0.568 0.02v0l-1.557-1.852c0.089-0.556 0.177-1.151 0.266-1.784 0.085-0.627 0.163-1.222 0.233-1.787v0l-0.17-0.049-0.642 3.468c0.009 0.027 0.036 0.067 0.079 0.118 0.046 0.045 0.128 0.142 0.246 0.29 0.124 0.151 0.315 0.374 0.574 0.667 0.256 0.299 0.611 0.7 1.066 1.202v0c1.086-0.094 2.066-0.291 2.942-0.593v0c0.839-0.289 1.708-0.694 2.606-1.212v0c-0.421 0.288-0.838 0.537-1.251 0.745v0c-0.425 0.233-0.862 0.438-1.312 0.613-0.447 0.169-0.917 0.309-1.411 0.417-0.493 0.109-1.031 0.177-1.614 0.205zM192.981 30.442v0c1.559-0.645 3.007-1.42 4.343-2.325 1.337-0.905 2.608-1.879 3.816-2.923v0l0.031-0.064c-0.664 0.459-1.327 0.932-1.99 1.421-0.672 0.492-1.342 0.971-2.009 1.435-0.667 0.465-1.35 0.91-2.051 1.335-0.701 0.425-1.414 0.799-2.14 1.121zM197.537 24.76v0c1.215-0.888 2.437-1.746 3.668-2.574v0c-1.283 0.779-2.517 1.605-3.701 2.478v0c-1.169 0.857-2.376 1.659-3.619 2.404v0c1.266-0.681 2.483-1.451 3.652-2.308zM203.396 23.765v0c-0.349 0.187-0.683 0.381-1.001 0.583-0.315 0.196-0.625 0.386-0.928 0.573v0c0.322-0.177 0.673-0.337 1.052-0.478 0.38-0.141 0.672-0.367 0.877-0.677zM195.896 29.881v0c0.603-0.382 1.19-0.783 1.759-1.204v0c0.03-0.016 0.062-0.027 0.096-0.033v0c-0.034 0.006-0.056 0.022-0.068 0.047v0c-0.563 0.424-1.159 0.821-1.787 1.19zM198.06 28.407l0.481-0.357zM199.041 27.679v0c-0.167 0.124-0.333 0.248-0.5 0.371v0c0.167-0.124 0.333-0.248 0.5-0.371zM198.019 28.422v0c-0.054 0.049-0.118 0.094-0.191 0.134v0c0.073-0.04 0.136-0.085 0.191-0.134zM195.796 29.946v0c-0.064 0.022-0.119 0.049-0.164 0.08v0c0.045-0.031 0.1-0.058 0.164-0.08z" fill="#ee3e38" data-fill-palette-color="primary"></path><path d="M228.218 55.301v0c0.547-0.372 1.168-0.826 1.862-1.362 0.699-0.53 1.401-1.067 2.106-1.611 0.7-0.549 1.387-1.087 2.062-1.614 0.67-0.522 1.264-0.969 1.782-1.343v0c-0.546 0.343-1.151 0.754-1.814 1.233-0.668 0.483-1.349 0.983-2.042 1.499-0.703 0.515-1.401 1.026-2.095 1.532-0.689 0.511-1.307 0.967-1.856 1.369v0c-0.064-0.413 0.052-0.756 0.349-1.028v0c0.342-0.314 0.636-0.569 0.881-0.766 0.25-0.192 0.547-0.413 0.89-0.665v0l0.513 0.044c0.072-0.094 0.143-0.173 0.213-0.237v0l0.256-0.235c0.397-0.364 0.887-0.735 1.468-1.111 0.586-0.38 1.194-0.757 1.824-1.131 0.629-0.364 1.227-0.727 1.793-1.089 0.571-0.367 1.038-0.716 1.4-1.048v0l-0.208-0.378c-0.445 0.343-0.963 0.722-1.556 1.135-0.583 0.414-1.19 0.837-1.823 1.269-0.627 0.437-1.247 0.871-1.86 1.304v0c-0.329 0.237-0.638 0.455-0.926 0.655v0c0.515-0.408 1.07-0.838 1.664-1.29v0c0.878-0.638 1.748-1.27 2.61-1.894 0.872-0.624 1.725-1.239 2.557-1.846 0.838-0.611 1.613-1.164 2.325-1.66v0c0.256-0.235 0.596-0.426 1.017-0.572 0.422-0.146 0.819-0.344 1.192-0.593v0c0.062 0.138 0.122 0.24 0.182 0.305v0l0.166 0.181c0.157 0.171 0.223 0.319 0.199 0.443-0.034 0.124-0.119 0.248-0.256 0.373v0l-0.128 0.118 0.139 0.303c0.381-0.099 0.737-0.125 1.069-0.077 0.322 0.048 0.57 0.167 0.745 0.358v0c0.378 0.412 0.13 1.02-0.745 1.822v0c-0.463 0.424-1.002 0.831-1.618 1.22-0.611 0.384-1.165 0.805-1.663 1.261v0l-0.332 0.305c-0.553 0.507-1.207 0.996-1.961 1.465-0.754 0.47-1.53 0.936-2.328 1.399-0.793 0.458-1.556 0.913-2.29 1.365-0.729 0.447-1.35 0.905-1.863 1.376v0c-0.121 0.111-0.24 0.238-0.357 0.383-0.127 0.144-0.251 0.272-0.372 0.382v0c-0.256 0.235-0.459 0.333-0.607 0.293-0.143-0.035-0.28-0.123-0.408-0.264v0c0.226-0.208 0.493-0.467 0.801-0.777 0.308-0.32 0.593-0.6 0.855-0.84v0c-0.219 0.145-0.492 0.368-0.819 0.668-0.327 0.3-0.652 0.566-0.976 0.798v0l-0.36-0.392-0.309 0.283c-0.415 0.103-0.742 0.024-0.982-0.238v0c-0.111-0.121-0.2-0.289-0.268-0.504-0.073-0.22-0.105-0.413-0.098-0.576zM252.89 42.449v0c-0.439-0.135-0.904-0.198-1.398-0.191-0.498 0.012-0.993 0.008-1.484-0.013v0c0.244 0.064 0.481 0.1 0.712 0.11 0.231 0.01 0.465 0.022 0.701 0.037 0.241 0.02 0.488 0.048 0.743 0.083 0.254 0.035 0.52 0.102 0.796 0.201v0c-0.024 0.115-0.043 0.215-0.057 0.302-0.009 0.091-0.038 0.16-0.088 0.206v0l-1.143-0.049c0.035-0.032 0.043-0.095 0.023-0.187-0.02-0.093-0.044-0.154-0.072-0.185v0c-0.227 0.106-0.446 0.145-0.657 0.117-0.216-0.024-0.42-0.054-0.612-0.092-0.196-0.042-0.4-0.078-0.611-0.106-0.216-0.024-0.435 0.015-0.657 0.117v0l-0.053 0.048c-0.015 0.014 0.003 0.048 0.053 0.104v0l2.39 0.183-0.94-0.041c-0.458-0.025-0.935-0.055-1.43-0.091-0.496-0.036-0.943-0.084-1.341-0.144-0.403-0.056-0.63-0.112-0.681-0.167v0l0.009-0.051c-0.081-0.148-0.181-0.288-0.301-0.418-0.115-0.126-0.227-0.268-0.336-0.428v0c0.136-0.125 0.263-0.278 0.382-0.461 0.114-0.188 0.214-0.322 0.3-0.4v0c0.085-0.078 0.167-0.075 0.246 0.01v0c0.05-0.046 0.103-0.15 0.158-0.312 0.06-0.166 0.133-0.349 0.219-0.548 0.081-0.204 0.175-0.41 0.28-0.618 0.111-0.213 0.251-0.397 0.423-0.554v0c0.171-0.157 0.406-0.238 0.706-0.245 0.295-0.002 0.595 0.043 0.9 0.133 0.301 0.085 0.579 0.182 0.835 0.289 0.261 0.113 0.448 0.196 0.561 0.249v0c0.065 0.07 0.125 0.061 0.183-0.028 0.067-0.089 0.132-0.098 0.197-0.028v0l0.263 0.606c-0.118 0.043-0.358 0.064-0.72 0.063-0.358 0.004-0.623 0.002-0.796-0.006v0c0.201 0.038 0.463 0.061 0.786 0.07 0.319 0.004 0.56 0.01 0.724 0.017v0c0.048 0.123 0.084 0.233 0.109 0.331 0.029 0.103 0.06 0.172 0.092 0.207v0l0.153-0.001c0.111 0.121 0.205 0.279 0.283 0.476 0.083 0.192 0.148 0.378 0.193 0.559 0.04 0.185 0.057 0.36 0.05 0.524-0.007 0.164-0.038 0.271-0.093 0.322zM230.776 52.245v0c0.205-0.16 0.407-0.318 0.608-0.473v0c-0.22 0.174-0.422 0.332-0.608 0.473z" fill="#ee3e38" data-fill-palette-color="primary"></path><path d="M270.858 88.532v0c-0.102 0.06-0.112 0.198-0.031 0.416v0l0.025 0.067c0.05 0.134 0.074 0.227 0.071 0.279v0c0.07 1.263-0.018 2.581-0.263 3.955-0.252 1.376-0.672 2.69-1.261 3.943-0.589 1.254-1.371 2.379-2.346 3.377-0.967 1.001-2.128 1.754-3.484 2.259v0c-1.183 0.441-2.407 0.635-3.672 0.582-1.265-0.053-2.452-0.335-3.56-0.847v0c1.026 0.564 2.174 0.89 3.445 0.978 1.264 0.09 2.52-0.098 3.766-0.563v0c1.4-0.522 2.595-1.302 3.585-2.341 0.996-1.041 1.801-2.201 2.417-3.479 0.622-1.281 1.069-2.612 1.34-3.995 0.265-1.38 0.384-2.674 0.357-3.88v0c0.31 0.831 0.44 1.748 0.391 2.749-0.049 1.001-0.228 2.007-0.536 3.018-0.308 1.011-0.725 1.992-1.25 2.946-0.532 0.956-1.115 1.814-1.75 2.575v0l-0.412-0.109c-0.494 0.687-1.082 1.288-1.763 1.804-0.675 0.514-1.419 0.922-2.231 1.225v0c-1.547 0.577-3.031 0.747-4.452 0.512-1.418-0.229-2.707-0.706-3.865-1.432-1.153-0.728-2.154-1.626-3.003-2.693-0.84-1.063-1.461-2.132-1.862-3.206v0c-0.229-0.614-0.395-1.255-0.498-1.923-0.099-0.677-0.113-1.389-0.042-2.136v0l-0.201 0.075c-0.117 0.743-0.122 1.462-0.016 2.158 0.113 0.693 0.287 1.357 0.524 1.989v0c0.586 1.573 1.505 2.993 2.756 4.26 1.255 1.258 2.702 2.179 4.34 2.763v0c-1.666-0.522-3.139-1.397-4.419-2.624-1.274-1.229-2.212-2.653-2.816-4.271v0c-0.62-1.663-0.802-3.128-0.545-4.395 0.262-1.27 0.756-2.368 1.481-3.294 0.723-0.932 1.573-1.69 2.55-2.273 0.975-0.589 1.878-1.039 2.709-1.348v0c1.119-0.417 2.267-0.678 3.445-0.781 1.184-0.106 2.338-0.019 3.462 0.261 1.124 0.28 2.188 0.78 3.191 1.498 1.003 0.718 1.889 1.707 2.656 2.964v0l-0.124-1.035c-0.063-0.501-0.053-0.876 0.029-1.125 0.08-0.255 0.174-0.403 0.282-0.444v0c0.173-0.064 0.436 0.056 0.79 0.361 0.348 0.307 0.611 0.701 0.79 1.18zM266.396 88.284l-0.223 0.312c0.443 0.505 0.767 1.032 0.972 1.582v0c0.203 0.544 0.276 0.993 0.219 1.35-0.057 0.356-0.171 0.566-0.344 0.63v0c-0.109 0.041-0.277-0.039-0.504-0.238-0.221-0.202-0.518-0.452-0.891-0.749-0.373-0.298-0.819-0.605-1.337-0.922-0.512-0.319-1.108-0.57-1.788-0.753-0.68-0.183-1.45-0.257-2.311-0.221-0.854 0.034-1.796 0.243-2.825 0.627v0c-1.509 0.562-2.518 1.324-3.026 2.286-0.515 0.964-0.548 2.047-0.1 3.249v0c0.284 0.761 0.705 1.492 1.265 2.193 0.56 0.702 1.2 1.286 1.921 1.753 0.72 0.467 1.507 0.771 2.361 0.912 0.847 0.143 1.709 0.051 2.584-0.275v0c0.652-0.243 1.265-0.602 1.838-1.078 0.573-0.476 1.085-1.027 1.535-1.654 0.451-0.627 0.835-1.316 1.152-2.068 0.315-0.758 0.536-1.532 0.664-2.323v0c0.116-0.764 0.191-1.382 0.227-1.854 0.033-0.478 0.104-0.836 0.211-1.073v0c-0.154-0.139-0.348-0.347-0.582-0.624-0.241-0.274-0.58-0.629-1.018-1.062zM268.816 90.265l-0.28-0.048c0.048 1.125-0.086 2.271-0.401 3.437v0c-0.295 1.006-0.673 1.966-1.133 2.881v0c0.512-0.912 0.924-1.848 1.236-2.81v0c0.38-1.11 0.573-2.264 0.578-3.46zM259.723 100.744v0c-0.819-0.066-1.612-0.291-2.382-0.674v0c0.408 0.292 0.848 0.507 1.321 0.643 0.48 0.134 0.937 0.219 1.373 0.254 0.435 0.034 0.823 0.039 1.163 0.014v0c0.305-0.041 0.556-0.072 0.752-0.095v0c-0.66-0.031-1.402-0.078-2.227-0.142zM257.721 103.992v0c-0.052-0.003-0.105-0.019-0.16-0.05v0c-0.033-0.01-0.054-0.027-0.063-0.053v0c-0.007-0.019 0.128-0.008 0.406 0.035 0.28 0.048 0.612 0.107 0.994 0.175 0.389 0.066 0.791 0.12 1.207 0.162v0c0.319 0.056 0.59 0.079 0.812 0.069v0c-1.052 0.05-2.117-0.063-3.196-0.338zM263.721 103.853v0c-0.352 0.131-0.705 0.237-1.06 0.319-0.356 0.082-0.694 0.12-1.017 0.116v0c0.601-0.049 1.24-0.2 1.918-0.452v0c0.505-0.188 0.981-0.417 1.427-0.685v0c0.392-0.219 0.766-0.457 1.122-0.713v0c-0.356 0.256-0.712 0.502-1.069 0.737v0c-0.401 0.273-0.841 0.499-1.321 0.678zM268.479 89.976l0.585 0.044 0.014-0.343c-0.046-0.005-0.099-0.021-0.161-0.05-0.061-0.028-0.115-0.034-0.159-0.017v0c-0.045 0.017-0.095 0.068-0.15 0.154-0.058 0.08-0.101 0.15-0.129 0.212zM266.856 96.818v0c0.059-0.095 0.108-0.189 0.146-0.283v0c-0.057 0.101-0.105 0.196-0.146 0.283zM260.917 104.33v0c0.048 0.011 0.094 0.009 0.139-0.008v0c-0.045 0.017-0.091 0.019-0.139 0.008zM261.134 104.326v0c-0.026-0.012-0.052-0.013-0.078-0.004v0c0.026-0.01 0.052-0.008 0.078 0.004z" fill="#ee3e38" data-fill-palette-color="primary"></path><path d="M8.281 138.501c0-1.903 1.542-3.445 3.446-3.446 1.903 0 3.445 1.542 3.445 3.446 0 1.903-1.542 3.445-3.445 3.445-1.903 0-3.445-1.542-3.446-3.445z" fill="#ee3e38" data-fill-palette-color="primary"></path><path d="M266.232 138.501c0-1.903 1.542-3.445 3.445-3.446 1.903 0 3.445 1.542 3.445 3.446 0 1.903-1.542 3.445-3.445 3.445-1.903 0-3.445-1.542-3.445-3.445z" fill="#ee3e38" data-fill-palette-color="primary"></path></g><g id="text-1"><path d="M7.005 186.371v0c0.044 1.132 0.259 2.227 0.646 3.284v0c0.436 1.192 1.029 2.236 1.777 3.132 0.745 0.905 1.597 1.665 2.557 2.28 0.95 0.611 1.97 1.085 3.059 1.421v0c0.762 0.237 1.553 0.402 2.372 0.494v0c-0.755-0.058-1.515-0.169-2.28-0.332v0c-1.076-0.239-2.095-0.643-3.06-1.213-0.964-0.57-1.842-1.31-2.632-2.22-0.784-0.912-1.42-2.035-1.908-3.367v0l-0.165-0.452c-0.696-1.903-0.878-3.711-0.546-5.425 0.339-1.715 1.001-3.273 1.986-4.672 0.983-1.406 2.209-2.632 3.679-3.678 1.47-1.046 2.997-1.859 4.58-2.438v0c0.666-0.244 1.388-0.468 2.163-0.672 0.769-0.201 1.574-0.325 2.415-0.371 0.847-0.048 1.71 0.007 2.588 0.165 0.879 0.158 1.751 0.497 2.617 1.015v0c0.699 0.42 1.344 0.922 1.935 1.505 0.589 0.577 1.032 1.203 1.33 1.879v0c-0.071-0.054-0.128-0.073-0.173-0.057v0c-0.09 0.033-0.167 0.119-0.232 0.26-0.071 0.142-0.165 0.235-0.28 0.276v0l-0.068 0.025c-0.09 0.033-0.176 0.006-0.258-0.08-0.082-0.086-0.207-0.229-0.375-0.429-0.161-0.203-0.392-0.456-0.692-0.761-0.296-0.313-0.696-0.661-1.2-1.043v0c-0.085 0.184-0.163 0.289-0.233 0.314v0c0.39 0.351 0.698 0.697 0.923 1.035 0.223 0.332 0.394 0.659 0.511 0.98v0c0.244 0.666 0.309 1.191 0.195 1.574-0.123 0.379-0.242 0.59-0.358 0.632v0c-0.186 0.068-0.388-0.018-0.606-0.257-0.221-0.246-0.487-0.527-0.798-0.842-0.314-0.321-0.687-0.635-1.119-0.942-0.441-0.311-0.979-0.481-1.614-0.51v0c-0.685-0.164-1.476-0.19-2.373-0.08-0.906 0.106-1.782 0.314-2.628 0.623v0c-1.448 0.53-2.708 1.187-3.78 1.971-1.065 0.782-1.919 1.647-2.561 2.594-0.646 0.956-1.043 1.976-1.19 3.062-0.15 1.079-0.014 2.196 0.408 3.35v0c0.403 1.102 1.042 1.995 1.917 2.677 0.875 0.683 1.903 1.16 3.085 1.433 1.174 0.268 2.448 0.336 3.824 0.203 1.367-0.137 2.765-0.467 4.194-0.989v0c0.686-0.251 1.353-0.542 2.002-0.874 0.651-0.325 1.243-0.724 1.775-1.195 0.526-0.469 0.991-1.016 1.394-1.643 0.396-0.625 0.696-1.366 0.897-2.225v0c0.143-1.04 0.212-1.872 0.209-2.496-0.009-0.621 0.079-0.966 0.265-1.034v0c0.064-0.023 0.161-0.008 0.29 0.046v0c0.163 1.241 0.129 2.427-0.105 3.559v0c-0.22 1.047-0.649 2.01-1.286 2.89v0c0.715-0.966 1.179-1.932 1.393-2.896v0c0.267-1.057 0.347-2.23 0.238-3.521v0c0.158 0.073 0.284 0.092 0.381 0.057v0c0.09-0.033 0.109-0.229 0.057-0.588-0.058-0.357-0.11-0.748-0.157-1.174-0.053-0.424-0.07-0.828-0.051-1.213 0.013-0.382 0.122-0.611 0.326-0.686v0c0.256-0.094 0.517 0.043 0.783 0.411 0.268 0.374 0.591 0.83 0.969 1.368v0c0.059 0.16 0.094 0.325 0.105 0.496 0.009 0.164 0.009 0.313 0 0.447v0c0.208 1.203 0.235 2.41 0.082 3.621-0.157 1.22-0.5 2.388-1.028 3.504-0.529 1.116-1.263 2.159-2.202 3.127-0.93 0.973-2.078 1.799-3.442 2.48v0c1.31-0.61 2.432-1.366 3.367-2.267 0.932-0.908 1.69-1.915 2.273-3.022 0.587-1.116 0.985-2.312 1.194-3.587 0.209-1.275 0.256-2.568 0.141-3.877v0c0.387 1.057 0.56 2.186 0.519 3.385-0.041 1.199-0.312 2.385-0.814 3.556-0.495 1.169-1.223 2.297-2.185 3.383-0.958 1.077-2.155 2.034-3.592 2.873v0c-0.016-0.045-0.06-0.105-0.131-0.181-0.067-0.084-0.109-0.149-0.126-0.194v0c-1.095 0.641-2.194 1.162-3.296 1.566v0c-1.609 0.588-3.273 0.914-4.995 0.976-1.725 0.072-3.36-0.137-4.904-0.625-1.545-0.488-2.941-1.275-4.188-2.359-1.238-1.08-2.177-2.495-2.817-4.245v0c-0.377-1.032-0.599-2.095-0.665-3.19-0.062-1.104 0.005-2.171 0.202-3.202v0c-0.028 0.061-0.065 0.1-0.11 0.117v0c-0.051 0.019-0.098-0.03-0.14-0.145v0c-0.239 1.054-0.326 2.128-0.26 3.223zM24.307 195.442v0c-0.933 0.211-1.917 0.382-2.951 0.513-1.035 0.131-2.079 0.176-3.134 0.133-1.063-0.047-2.1-0.209-3.11-0.486v0c-0.993-0.291-1.921-0.722-2.783-1.293v0c0.837 0.58 1.743 1.03 2.717 1.35v0c1.002 0.316 2.037 0.504 3.105 0.564 1.064 0.068 2.149 0.024 3.254-0.133 1.099-0.155 2.162-0.395 3.192-0.721v0c-0.078 0.007-0.174 0.031-0.29 0.073zM21.299 193.415v0c-0.94 0.133-1.883 0.166-2.831 0.098-0.95-0.074-1.853-0.278-2.709-0.611v0c0.84 0.369 1.73 0.588 2.671 0.657 0.937 0.079 1.893 0.03 2.869-0.144zM26.22 195.636l-0.586 0.215c-0.391 0.143-0.8 0.267-1.226 0.372v0c-0.4 0.117-0.817 0.23-1.25 0.337v0c0.391-0.143 0.835-0.28 1.332-0.411v0c0.525-0.134 1.086-0.31 1.681-0.528v0l0.625-0.228c-0.179 0.087-0.371 0.168-0.576 0.243zM21.299 193.415v0c0.548-0.07 1.093-0.171 1.633-0.303 0.54-0.132 1.073-0.294 1.598-0.487v0c0.577-0.211 1.15-0.461 1.721-0.749v0c-0.241 0.117-0.475 0.221-0.704 0.311-0.226 0.097-0.464 0.192-0.714 0.283v0c-1.173 0.429-2.351 0.744-3.534 0.945zM23.09 196.585l-0.134 0.049-1.804 0.311c-0.459 0.037-0.911 0.072-1.358 0.104-0.44 0.03-0.884 0.036-1.333 0.02v0c0.805-0.004 1.594-0.053 2.366-0.147 0.775-0.087 1.529-0.2 2.263-0.337zM7.211 183.211v0c0.026-0.009 0.043-0.03 0.054-0.063v0c-0.019 0.007-0.037 0.028-0.054 0.063zM18.461 197.069v0c-0.113-0.01-0.206-0.016-0.279-0.018v0c0.073 0.002 0.166 0.008 0.279 0.018zM17.497 196.996v0c0.081 0.021 0.16 0.029 0.237 0.022v0c-0.078 0.007-0.157-0.001-0.237-0.022zM29.877 189.067v0c0.035-0.042 0.067-0.094 0.096-0.155v0c-0.035 0.042-0.067 0.094-0.096 0.155zM18.182 197.051v0c-0.132-0.003-0.264-0.005-0.395-0.008v0c0.132 0.003 0.264 0.005 0.395 0.008z" fill="#ee3e38" data-fill-palette-color="primary"></path><path d="M50.199 243.662v0c-1.07-0.457-2.094-1.003-3.072-1.637-0.978-0.635-1.88-1.369-2.707-2.201v0c-0.76-0.765-1.414-1.596-1.962-2.496-0.552-0.904-0.94-1.846-1.164-2.826-0.224-0.99-0.255-2.023-0.093-3.098 0.158-1.071 0.549-2.158 1.175-3.261v0c-0.712 0.813-1.161 1.673-1.346 2.58-0.181 0.902-0.196 1.821-0.045 2.757 0.152 0.937 0.436 1.857 0.854 2.761 0.412 0.899 0.839 1.73 1.281 2.493v0c0.072 0.102 0.188 0.232 0.346 0.392v0c1.015 1.021 2.024 1.861 3.025 2.52 1.002 0.659 2.03 1.33 3.085 2.014v0c-0.506-0.055-1.034-0.194-1.584-0.417-0.554-0.228-1.116-0.517-1.684-0.866-0.568-0.349-1.134-0.744-1.697-1.185-0.558-0.446-1.088-0.92-1.588-1.423v0l-0.289-0.29c-0.087-0.087-0.164-0.179-0.231-0.276v0l0.154-0.528c-0.553-0.692-1.045-1.496-1.477-2.415-0.422-0.918-0.694-1.879-0.817-2.883-0.118-0.999-0.042-2.007 0.226-3.024 0.273-1.013 0.833-1.94 1.68-2.782v0c0.716-0.712 1.507-1.306 2.372-1.781 0.865-0.485 1.776-0.89 2.733-1.215v0c-0.039 0-0.075-0.017-0.109-0.051v0c-0.053-0.053-0.043-0.116 0.03-0.188v0c-0.932 0.311-1.84 0.689-2.725 1.135-0.889 0.451-1.723 1.064-2.503 1.839v0c-0.832 0.828-1.38 1.752-1.643 2.774-0.259 1.017-0.348 2.011-0.27 2.981 0.089 0.97 0.267 1.871 0.535 2.702v0c0.258 0.744 0.5 1.331 0.726 1.761v0c-0.379-0.691-0.695-1.459-0.948-2.305v0c-0.277-0.898-0.414-1.825-0.412-2.78 0.003-0.955 0.165-1.901 0.486-2.836 0.321-0.945 0.864-1.797 1.629-2.558v0c1.094-1.087 2.317-1.904 3.669-2.45 1.353-0.556 2.709-0.851 4.07-0.885 1.356-0.039 2.663 0.167 3.921 0.619 1.268 0.452 2.359 1.138 3.273 2.058v0c0.188 0.121 0.404 0.296 0.65 0.523 0.236 0.227 0.431 0.419 0.585 0.573v0c0.432 0.677 0.843 1.385 1.231 2.125 0.389 0.73 0.702 1.529 0.941 2.398v0c-0.101-0.034-0.198-0.034-0.289-0.001-0.082 0.034-0.172 0.079-0.268 0.137-0.097 0.067-0.191 0.103-0.283 0.108-0.097 0.009-0.198-0.039-0.303-0.146v0c-0.087-0.087-0.19-0.244-0.31-0.471-0.125-0.222-0.288-0.541-0.49-0.957v0c-0.106 0-0.21 0.05-0.311 0.151v0c0.206 0.623 0.252 1.149 0.14 1.578-0.117 0.424-0.297 0.757-0.539 0.997v0c-0.121 0.12-0.355 0.093-0.702-0.081v0c-0.226-0.227-0.531-0.622-0.915-1.183-0.389-0.566-0.877-1.144-1.465-1.734v0c-0.26-0.261-0.556-0.535-0.887-0.82-0.342-0.286-0.705-0.545-1.091-0.778-0.39-0.238-0.795-0.422-1.214-0.553-0.429-0.132-0.849-0.162-1.26-0.091v0c-0.483 0.066-0.985 0.185-1.506 0.358-0.522 0.172-1.029 0.364-1.522 0.574-0.498 0.216-0.949 0.448-1.355 0.698-0.406 0.25-0.74 0.504-1.001 0.765v0c-0.242 0.241-0.402 0.626-0.481 1.156-0.084 0.526-0.08 1.1 0.009 1.723 0.08 0.623 0.257 1.26 0.53 1.912 0.263 0.652 0.626 1.211 1.088 1.675v0c0.226 0.227 0.534 0.465 0.925 0.712 0.39 0.257 0.802 0.507 1.235 0.75 0.429 0.247 0.843 0.499 1.243 0.756 0.395 0.262 0.703 0.504 0.924 0.726v0c0.207 0.208 0.32 0.365 0.339 0.472 0.019 0.106-0.032 0.219-0.153 0.34v0c-0.54-0.262-1.094-0.544-1.662-0.845v0c-0.361-0.189-0.715-0.371-1.063-0.546v0l1.005 0.604c0.54 0.291 1.086 0.58 1.64 0.866v0c-0.087 0.087-0.162 0.166-0.225 0.238-0.058 0.077-0.087 0.202-0.088 0.376v0l0.362 0.161c0.193 0.087 0.41 0.165 0.65 0.233v0c0.346 0.348 0.548 0.624 0.606 0.827 0.057 0.193 0.016 0.36-0.125 0.499v0c-0.087 0.087-0.172 0.147-0.254 0.18-0.087 0.038-0.181 0.065-0.282 0.079-0.106 0.019-0.239 0.035-0.398 0.049-0.154 0.019-0.343 0.071-0.565 0.158zM43.924 231.108v0c-0.17 0.448-0.261 0.952-0.272 1.512-0.011 0.56 0.052 1.127 0.19 1.701 0.133 0.57 0.33 1.125 0.589 1.667v0c0.24 0.522 0.542 0.981 0.908 1.377v0c-0.313-0.382-0.589-0.834-0.829-1.355v0c-0.259-0.532-0.458-1.085-0.596-1.66-0.133-0.57-0.207-1.137-0.219-1.701-0.003-0.565 0.073-1.078 0.229-1.541zM47.693 239.269v0c0.072 0.034 0.132 0.075 0.18 0.123v0c-0.048-0.048-0.108-0.09-0.18-0.123zM41.494 237.665v0c-0.034-0.034-0.06-0.08-0.079-0.137v0c0.019 0.058 0.046 0.104 0.079 0.137z" fill="#ee3e38" data-fill-palette-color="primary"></path><path d="M101.679 254.572v0c-0.202-0.083-0.494-0.163-0.876-0.239-0.373-0.08-0.756-0.145-1.148-0.197-0.383-0.055-0.737-0.093-1.059-0.116-0.32-0.029-0.524-0.035-0.612-0.019v0c0.629 0.156 1.216 0.273 1.76 0.349 0.55 0.079 1.122 0.241 1.716 0.486v0c-0.199 0.161-0.413 0.258-0.64 0.289-0.23 0.038-0.464 0.041-0.702 0.01-0.238-0.032-0.488-0.079-0.749-0.143-0.265-0.072-0.548-0.13-0.848-0.172v0l-0.112-0.4c-0.494-0.019-0.861-0.06-1.101-0.122-0.24-0.062-0.483-0.144-0.729-0.246v0c-0.271-0.112-0.548-0.229-0.829-0.352-0.279-0.13-0.588-0.265-0.929-0.405v0c-0.047 0.114-0.094 0.201-0.142 0.262v0c0.517 0.213 0.962 0.389 1.333 0.528 0.365 0.136 0.82 0.275 1.366 0.419v0c-0.531-0.108-0.995-0.218-1.392-0.33-0.39-0.109-0.844-0.271-1.361-0.484v0c-0.308 0.478-0.596 0.954-0.865 1.426-0.275 0.47-0.51 0.941-0.705 1.414v0c-0.112 0.271-0.234 0.594-0.366 0.968-0.123 0.37-0.245 0.748-0.367 1.133-0.118 0.394-0.235 0.759-0.352 1.095-0.11 0.338-0.198 0.587-0.262 0.744v0l-0.839 2.035c-0.074 0.501 0.115 0.974 0.567 1.418 0.449 0.451 1.181 0.886 2.197 1.304v0l1.088 0.449c0.385 0.159 0.633 0.309 0.744 0.45 0.12 0.138 0.152 0.277 0.095 0.416v0c-0.047 0.114-0.164 0.139-0.353 0.076-0.186-0.069-0.367-0.14-0.543-0.213v0c-0.656-0.27-1.329-0.599-2.018-0.987v0c-0.645-0.369-1.272-0.746-1.881-1.13v0c0.591 0.428 1.222 0.858 1.893 1.29v0c0.698 0.42 1.4 0.776 2.106 1.068v0l0.303 0.124c0.088 0.036 0.193 0.069 0.315 0.097v0c-0.047 0.114-0.082 0.217-0.106 0.311-0.024 0.094-0.037 0.206-0.04 0.337v0l0.302 0.047c0.071 0.007 0.156 0.024 0.256 0.051 0.094 0.024 0.171 0.023 0.234-0.004v0c0.697 0.368 0.957 0.767 0.78 1.197v0c-0.101 0.246-0.254 0.419-0.458 0.519-0.198 0.103-0.417 0.16-0.658 0.172-0.245 0.003-0.496-0.031-0.755-0.101-0.262-0.064-0.506-0.142-0.733-0.236v0c-0.795-0.328-1.55-0.698-2.266-1.111-0.713-0.419-1.41-0.832-2.091-1.238v0c0.546 0.483 1.276 0.995 2.191 1.534 0.917 0.533 1.874 1.005 2.87 1.416v0c-0.32 0.06-0.669 0.064-1.045 0.012-0.371-0.05-0.739-0.15-1.105-0.301v0l-2.317-1.309c-0.297-0.174-0.522-0.318-0.674-0.433-0.15-0.121-0.291-0.242-0.426-0.364-0.137-0.115-0.289-0.248-0.456-0.398-0.161-0.147-0.393-0.336-0.697-0.564v0l0.156-0.379c-0.522-0.4-0.883-0.866-1.084-1.399-0.207-0.536-0.318-1.072-0.333-1.61-0.017-0.531 0.036-1.044 0.159-1.54 0.12-0.489 0.256-0.917 0.407-1.282v0c0.159-0.385 0.312-0.739 0.459-1.062 0.148-0.323 0.291-0.651 0.429-0.986v0c0.104-0.252 0.229-0.574 0.375-0.963 0.146-0.39 0.298-0.803 0.456-1.241 0.152-0.439 0.315-0.889 0.489-1.348 0.175-0.459 0.345-0.891 0.512-1.295v0c0.101-0.246 0.205-0.48 0.312-0.702 0.106-0.222 0.21-0.419 0.31-0.591v0l-0.341-0.141c-0.09 0.147-0.177 0.322-0.26 0.524v0l-0.254 0.615c-0.27 0.656-0.526 1.311-0.765 1.965-0.246 0.651-0.475 1.251-0.686 1.799-0.214 0.554-0.392 1.031-0.534 1.429-0.139 0.408-0.246 0.703-0.321 0.887v0l-0.558 1.353-0.113 0.274c0.183-0.641 0.472-1.54 0.868-2.697v0c0.478-1.338 1.043-2.799 1.696-4.383v0l0.254-0.615c0.101-0.246 0.205-0.48 0.311-0.702 0.1-0.225 0.195-0.384 0.287-0.48v0l-1.118-0.538c-0.187-0.262-0.385-0.491-0.592-0.687-0.216-0.192-0.425-0.33-0.627-0.413v0l0.281-0.682c0.055-0.132 0.118-0.243 0.192-0.33 0.079-0.085 0.208-0.092 0.384-0.019v0c0.05 0.021 0.155 0.09 0.314 0.207v0l0.167-0.407c-0.189-0.24-0.314-0.51-0.375-0.808-0.059-0.305-0.036-0.583 0.067-0.836v0c0.242-0.587 0.779-0.708 1.612-0.365v0c0.315 0.13 0.634 0.287 0.957 0.472 0.32 0.191 0.656 0.37 1.008 0.537v0c0.3-0.459 0.565-0.87 0.796-1.233 0.227-0.371 0.452-0.729 0.675-1.073 0.225-0.35 0.459-0.693 0.7-1.028 0.242-0.336 0.515-0.677 0.821-1.024v0c0.389-0.371 0.75-0.798 1.082-1.281 0.335-0.489 0.631-0.984 0.888-1.483v0l0.707 0.325c0.114 0.047 0.194 0.121 0.241 0.221 0.053 0.103 0.029 0.278-0.072 0.524v0c-0.086 0.208-0.232 0.465-0.439 0.771v0l0.364 0.272c0.435-0.537 0.862-0.944 1.278-1.222 0.417-0.278 0.752-0.365 1.005-0.262v0c0.385 0.159 0.42 0.745 0.105 1.76v0l-0.25 0.605c-0.242 0.587-0.509 1.119-0.801 1.596-0.286 0.48-0.589 0.946-0.909 1.397-0.319 0.452-0.642 0.913-0.968 1.384-0.329 0.477-0.663 1-1.001 1.569v0c0.47 0.275 0.941 0.51 1.414 0.705v0c0.227 0.094 0.457 0.181 0.689 0.262 0.223 0.085 0.449 0.174 0.676 0.267v0c0.227 0.094 0.505 0.101 0.832 0.022 0.321-0.082 0.583-0.081 0.785 0.003v0c0.183 0.075 0.295 0.188 0.337 0.338 0.048 0.153 0.043 0.298-0.014 0.437v0c-0.454-0.062-0.906-0.112-1.356-0.149-0.443-0.035-0.871-0.071-1.284-0.109v0c0.384 0.107 0.804 0.18 1.26 0.221 0.462 0.043 0.944 0.101 1.445 0.174v0c-0.047 0.114-0.087 0.219-0.119 0.317-0.024 0.094-0.037 0.206-0.04 0.338v0c0.044 0.018 0.106 0.029 0.186 0.032v0c0.157 0.013 0.245 0.023 0.264 0.031v0c0.18 0.207 0.27 0.41 0.269 0.609-0.001 0.199-0.043 0.399-0.126 0.602v0c-0.065 0.158-0.149 0.289-0.251 0.394-0.096 0.108-0.162 0.206-0.199 0.295zM87.528 263.386v0c-0.063-0.742 0.014-1.412 0.23-2.009 0.223-0.595 0.417-1.164 0.582-1.708v0l1.824-5.283-0.358 0.572c-0.624 1.514-1.138 2.912-1.54 4.193-0.406 1.272-0.649 2.29-0.728 3.054v0c-0.083 0.202-0.145 0.335-0.187 0.4-0.039 0.058-0.068 0.112-0.089 0.162v0c-0.018 0.044-0.013 0.113 0.015 0.206 0.031 0.086 0.114 0.224 0.251 0.413zM90.211 262.355v0c0.031-0.201 0.088-0.403 0.172-0.604v0l0.686-1.666c-0.113 0.219-0.226 0.431-0.339 0.635-0.114 0.204-0.217 0.42-0.311 0.647v0c-0.242 0.587-0.393 1.052-0.454 1.396v0c-0.042 0.3 0 0.583 0.126 0.849v0c-0.056-0.186-0.074-0.366-0.053-0.542v0c0.054-0.184 0.112-0.423 0.173-0.715zM87.003 260.711l-0.06 0.253zM90.142 263.677v0c-0.009-0.033-0.025-0.055-0.051-0.065v0c0.025 0.01 0.042 0.032 0.051 0.065z" fill="#ee3e38" data-fill-palette-color="primary"></path><path d="M146.46 269.291v0c-0.662 0.004-1.157-0.003-1.484-0.021-0.335-0.025-0.635-0.037-0.901-0.035v0c-0.737 0.005-1.385 0.047-1.945 0.125-0.566 0.079-1.043 0.229-1.43 0.45-0.388 0.221-0.679 0.54-0.874 0.957-0.195 0.418-0.291 0.971-0.286 1.661v0c0.007 1.003 0.127 1.743 0.363 2.218 0.235 0.476 0.568 0.815 0.999 1.017 0.431 0.209 0.954 0.335 1.569 0.379 0.608 0.044 1.291 0.149 2.049 0.314v0c0.444 0.045 0.884 0.073 1.321 0.084 0.444 0.011 0.887 0.015 1.331 0.012v0l2.641-0.017c-1.229-0.067-2.447-0.103-3.655-0.11-1.215-0.006-2.304-0.101-3.267-0.286-0.97-0.192-1.757-0.531-2.361-1.018-0.604-0.481-0.909-1.222-0.916-2.225v0c-0.005-0.812 0.096-1.434 0.305-1.865 0.202-0.424 0.48-0.744 0.834-0.958 0.354-0.207 0.776-0.333 1.266-0.377 0.491-0.037 1.016-0.058 1.576-0.061v0c0.689-0.004 1.389 0.028 2.099 0.099v0c-0.565 0.174-1.134 0.304-1.706 0.39-0.573 0.092-1.104 0.181-1.596 0.266-0.491 0.092-0.913 0.207-1.267 0.346-0.354 0.132-0.592 0.321-0.712 0.568v0l0.01 1.658-0.285 0.145c0.1 0.614 0.195 1.074 0.285 1.38 0.084 0.3 0.321 0.53 0.711 0.692 0.397 0.154 1.029 0.276 1.896 0.366 0.867 0.097 2.134 0.249 3.801 0.456v0l2.64-0.017c0.471-0.003 0.747-0.022 0.829-0.057 0.088-0.042 0.143-0.062 0.164-0.062v0l-0.341-1.973c-0.051-0.491-0.115-0.934-0.193-1.33-0.078-0.388-0.179-0.801-0.305-1.236v0c-0.02 0.068-0.091 0.103-0.214 0.103v0c0.126 0.415 0.231 0.855 0.316 1.319 0.092 0.47 0.17 0.91 0.233 1.319 0.064 0.416 0.114 0.77 0.151 1.063 0.043 0.293 0.088 0.467 0.136 0.521v0l-0.225 0.074c-0.048 0.021-0.119 0.031-0.214 0.032v0l-0.226 0.001c-0.171 0.001-0.365-0.015-0.583-0.047-0.219-0.033-0.502-0.048-0.85-0.046v0l-1.208 0.008c-0.955 0.006-1.836-0.039-2.642-0.136v0c-0.758-0.091-1.421-0.209-1.988-0.356v0c0.567 0.119 1.254 0.214 2.059 0.284v0c0.86 0.09 1.656 0.133 2.386 0.127v0c0.321-0.002 0.658-0.008 1.014-0.017 0.355-0.016 0.74-0.025 1.156-0.028v0l1.208-0.007c-0.076-0.075-0.161-0.112-0.257-0.111v0l-0.071 0c-0.113-1.685-0.346-3.297-0.697-4.837-0.351-1.54-0.909-2.887-1.675-4.043-0.765-1.162-1.764-2.087-2.996-2.775-1.226-0.688-2.757-1.026-4.593-1.014v0c-0.512 0.003-1.027 0.044-1.545 0.123-0.511 0.072-1.036 0.171-1.574 0.297v0c0.047-0.048 0.071-0.096 0.071-0.144v0c-0.001-0.123-0.049-0.239-0.146-0.347-0.096-0.109-0.145-0.224-0.146-0.347v0c-0.001-0.15 0.152-0.291 0.458-0.423 0.299-0.138 0.95-0.272 1.953-0.401v0c-0.048-0.047-0.079-0.122-0.094-0.225-0.007-0.095-0.011-0.167-0.011-0.215v0c-1.324 0.009-2.354-0.015-3.092-0.072-0.731-0.057-1.097-0.232-1.099-0.525v0c-0.001-0.123 0.152-0.294 0.457-0.515 0.306-0.227 0.738-0.445 1.296-0.653 0.558-0.215 1.236-0.404 2.033-0.566 0.797-0.162 1.684-0.246 2.66-0.253v0c1.883-0.012 3.499 0.264 4.847 0.828 1.355 0.564 2.493 1.314 3.413 2.25 0.927 0.936 1.682 2.002 2.263 3.2 0.581 1.197 1.053 2.399 1.415 3.604 0.363 1.212 0.633 2.388 0.812 3.526 0.178 1.132 0.345 2.113 0.5 2.945v0c0.001 0.15 0.009 0.297 0.023 0.44 0.008 0.15 0.012 0.324 0.014 0.522v0c0.005 0.71-0.118 1.328-0.367 1.855-0.256 0.527-0.608 0.97-1.056 1.327-0.455 0.358-0.979 0.631-1.571 0.819-0.599 0.188-1.244 0.284-1.932 0.289v0c-0.539 0.004-1.235-0.006-2.089-0.027-0.86-0.022-1.679-0.091-2.458-0.209v0c-0.519-0.113-1.083-0.198-1.69-0.255-0.615-0.057-1.24-0.159-1.876-0.306-0.636-0.139-1.254-0.343-1.856-0.612-0.602-0.262-1.144-0.668-1.626-1.218-0.481-0.55-0.865-1.264-1.15-2.142-0.286-0.878-0.433-1.99-0.441-3.334v0c-0.008-1.276 0.278-2.302 0.86-3.076 0.582-0.775 1.281-1.377 2.097-1.805 0.816-0.435 1.65-0.724 2.502-0.866 0.859-0.135 1.558-0.205 2.097-0.208v0c0.682-0.004 1.136 0.04 1.362 0.134 0.219 0.094 0.329 0.192 0.33 0.295v0c0 0.068-0.013 0.126-0.04 0.174v0c-0.607 0.004-1.388 0.036-2.343 0.097-0.955 0.054-1.879 0.217-2.771 0.489-0.892 0.279-1.654 0.693-2.285 1.243-0.631 0.557-0.943 1.337-0.937 2.34v0c0.212-0.909 0.58-1.628 1.102-2.156 0.522-0.529 1.123-0.922 1.804-1.179 0.688-0.264 1.393-0.429 2.116-0.495 0.716-0.066 1.371-0.101 1.964-0.105v0l1.239-0.008c-0.095 0.096-0.142 0.195-0.141 0.298v0c0.001 0.096 0.049 0.181 0.145 0.255v0l1.433-0.01c0.396 0.072 0.68 0.197 0.852 0.374 0.172 0.183 0.258 0.35 0.259 0.499v0c0.001 0.218-0.106 0.414-0.324 0.586-0.224 0.172-0.591 0.345-1.102 0.519zM140.356 278.216v0c0.684 0.269 1.388 0.472 2.113 0.61 0.724 0.145 1.441 0.24 2.151 0.283v0c0.71 0.07 1.369 0.104 1.976 0.1v0c-0.492-0.045-0.98-0.127-1.465-0.246v0c-0.519-0.119-0.974-0.229-1.364-0.329v0c-0.417-0.093-0.827-0.155-1.229-0.187-0.403-0.038-0.82-0.094-1.25-0.166-0.43-0.065-0.864-0.179-1.302-0.339-0.445-0.154-0.886-0.39-1.325-0.708v0c0.467 0.413 1.032 0.741 1.695 0.982zM140.545 274.294l0.144 0.071c-0.021-0.027 0.055 0.044 0.227 0.213v0c0.144 0.149 0.339 0.261 0.585 0.334v0c-0.123-0.054-0.304-0.114-0.543-0.18v0c-0.274-0.101-0.411-0.246-0.413-0.438zM141.614 274.912v0c-0.027 0-0.065 0-0.113 0v0c0.027 0 0.065 0 0.113 0z" fill="#ee3e38" data-fill-palette-color="primary"></path><path d="M200.711 266.866l-3.389 0.105c-1.47-1.735-2.934-3.397-4.392-4.986-1.453-1.592-2.939-3.19-4.459-4.795v0c-0.716-0.736-1.379-1.48-1.988-2.23-0.609-0.751-1.31-1.464-2.104-2.139v0c0.132-0.118 0.218-0.262 0.256-0.433 0.038-0.171 0.134-0.293 0.287-0.368v0c0.11-0.054 0.248-0.037 0.412 0.05 0.161 0.081 0.322 0.185 0.482 0.311 0.161 0.127 0.315 0.264 0.463 0.412 0.154 0.145 0.259 0.242 0.313 0.291v0l0.351-0.285c-0.266-0.311-0.508-0.621-0.728-0.931-0.223-0.316-0.42-0.649-0.59-0.999v0c-0.066-0.135-0.148-0.349-0.246-0.644-0.104-0.291-0.046-0.49 0.175-0.598v0c0.331-0.162 0.841-0.035 1.53 0.381 0.695 0.413 1.466 0.997 2.313 1.753 0.841 0.759 1.726 1.614 2.654 2.566 0.925 0.946 1.803 1.873 2.633 2.781 0.821 0.905 1.549 1.719 2.183 2.443 0.64 0.72 1.09 1.237 1.349 1.551v0c0.22-1.011 0.355-2.018 0.405-3.022 0.055-1.007 0.102-2.016 0.139-3.029 0.037-1.013 0.102-2.024 0.193-3.034 0.092-1.009 0.285-2.022 0.579-3.038v0c0.067-0.253 0.163-0.653 0.291-1.202 0.124-0.554 0.269-1.122 0.433-1.703 0.167-0.59 0.351-1.124 0.551-1.602 0.2-0.477 0.41-0.77 0.631-0.877v0c0.11-0.054 0.246-0.025 0.406 0.086v0c-0.427 1.241-0.846 2.482-1.258 3.724-0.421 1.238-0.68 2.534-0.779 3.888v0c0.144-1.323 0.426-2.596 0.847-3.819 0.424-1.232 0.887-2.445 1.39-3.64v0l0.488 0.252c0.036-0.268 0.171-0.607 0.403-1.017 0.239-0.413 0.478-0.678 0.717-0.794v0c0.178-0.087 0.335-0.099 0.472-0.037 0.146 0.065 0.262 0.187 0.349 0.365v0c0.075 0.153 0.148 0.365 0.218 0.634 0.074 0.26 0.095 0.466 0.063 0.619v0c-0.036 0.207-0.103 0.403-0.202 0.588v0c-0.4 1.016-0.789 1.961-1.168 2.837-0.375 0.881-0.65 1.866-0.824 2.953v0l0.117-0.342c0.251-0.996 0.543-1.913 0.878-2.752 0.338-0.848 0.767-1.711 1.288-2.588v0c-0.076 0.903-0.262 1.734-0.559 2.494-0.291 0.757-0.563 1.577-0.816 2.46v0c-0.114 0.435-0.178 0.88-0.191 1.335-0.004 0.458-0.082 0.898-0.232 1.321v0l-0.34 0.051c0.023 1.105 0.035 2.234 0.037 3.388 0.007 1.151-0.034 2.302-0.125 3.456-0.093 1.147-0.272 2.274-0.536 3.382-0.264 1.108-0.659 2.159-1.184 3.152v0c0.002 0.159-0.077 0.341-0.234 0.547-0.161 0.2-0.281 0.357-0.362 0.473v0l-2.527 0.094c-0.399-0.428-0.834-0.884-1.306-1.367-0.462-0.481-0.905-0.929-1.328-1.345v0l-0.152 0.108 2.454 2.766c0.03 0.016 0.078 0.019 0.142 0.011 0.067-0.002 0.201-0.007 0.403-0.015 0.204-0.001 0.513-0.015 0.925-0.041 0.406-0.024 0.966-0.058 1.681-0.103v0c0.626-0.958 1.094-1.897 1.405-2.816v0c0.308-0.879 0.535-1.86 0.683-2.941v0c-0.036 0.534-0.1 1.04-0.193 1.518v0c-0.081 0.503-0.194 0.995-0.339 1.475-0.145 0.481-0.333 0.96-0.563 1.437-0.227 0.483-0.519 0.975-0.875 1.474zM201.321 263.425v0c0.474-1.705 0.767-3.4 0.877-5.087 0.117-1.69 0.135-3.373 0.053-5.049v0l-0.031-0.064c-0.054 0.839-0.093 1.693-0.116 2.563-0.024 0.87-0.058 1.733-0.103 2.59-0.048 0.851-0.122 1.703-0.222 2.557-0.109 0.85-0.262 1.681-0.458 2.49zM199.561 255.992v0c0.049-1.58 0.131-3.147 0.246-4.699v0c-0.192 1.567-0.306 3.122-0.342 4.666v0c-0.048 1.519-0.168 3.032-0.359 4.538v0c0.255-1.484 0.407-2.985 0.455-4.505zM202.52 250.504v0c-0.071 0.414-0.127 0.814-0.167 1.198-0.037 0.39-0.076 0.77-0.116 1.139v0c0.059-0.378 0.152-0.769 0.281-1.174 0.129-0.405 0.13-0.792 0.002-1.163zM202.734 260.651v0c0.077-0.744 0.124-1.488 0.141-2.233v0c0.013-0.036 0.024-0.068 0.033-0.096v0c-0.009 0.027-0.008 0.053 0.004 0.078v0c-0.022 0.748-0.082 1.498-0.178 2.251zM202.912 257.91l0.024-0.627zM202.938 256.633v0c-0.002 0.214-0.003 0.43-0.002 0.65v0c-0.001-0.22 0-0.436 0.002-0.65zM202.888 257.956v0c0.015 0.076 0.017 0.159 0.007 0.247v0c0.01-0.088 0.008-0.171-0.007-0.247zM202.719 260.783v0c-0.022 0.064-0.035 0.123-0.038 0.178v0c0.004-0.055 0.016-0.114 0.038-0.178z" fill="#ee3e38" data-fill-palette-color="primary"></path><path d="M241.101 234.054v0c-0.442-0.537-0.972-1.146-1.588-1.825-0.617-0.69-1.242-1.376-1.874-2.061-0.632-0.684-1.253-1.354-1.864-2.01-0.606-0.661-1.128-1.243-1.563-1.747v0c0.404 0.539 0.887 1.133 1.449 1.781 0.563 0.658 1.146 1.33 1.748 2.014 0.593 0.686 1.186 1.367 1.779 2.043 0.593 0.676 1.124 1.282 1.595 1.818v0c-0.43 0.104-0.799 0.016-1.105-0.266v0c-0.361-0.333-0.653-0.62-0.875-0.863-0.227-0.237-0.485-0.526-0.774-0.866v0l-0.001-0.543c-0.109-0.063-0.198-0.127-0.268-0.192v0l-0.271-0.25c-0.411-0.379-0.842-0.859-1.291-1.44-0.449-0.581-0.891-1.183-1.327-1.807-0.446-0.624-0.883-1.217-1.311-1.779-0.429-0.562-0.831-1.016-1.207-1.364v0l-0.381 0.248c0.399 0.433 0.838 0.939 1.315 1.518 0.487 0.579 0.985 1.177 1.493 1.793 0.513 0.621 1.021 1.233 1.524 1.836v0c0.274 0.317 0.53 0.618 0.768 0.903v0c-0.469-0.498-0.967-1.04-1.493-1.627v0c-0.745-0.853-1.48-1.707-2.206-2.561-0.73-0.849-1.45-1.684-2.159-2.505-0.71-0.821-1.354-1.582-1.933-2.283v0c-0.271-0.25-0.502-0.588-0.694-1.014-0.191-0.427-0.432-0.825-0.722-1.195v0c0.132-0.073 0.231-0.145 0.295-0.215v0l0.181-0.196c0.162-0.176 0.308-0.254 0.439-0.235 0.136 0.023 0.275 0.1 0.415 0.229v0l0.136 0.125 0.305-0.164c-0.137-0.395-0.195-0.765-0.176-1.109 0.024-0.349 0.127-0.621 0.307-0.816v0c0.398-0.432 1.053-0.226 1.966 0.615v0c0.487 0.449 0.962 0.975 1.427 1.579 0.454 0.604 0.943 1.147 1.464 1.628v0l0.354 0.326c0.572 0.527 1.139 1.166 1.701 1.915 0.557 0.745 1.11 1.515 1.659 2.308 0.554 0.789 1.099 1.546 1.635 2.273 0.527 0.727 1.059 1.338 1.596 1.833v0c0.125 0.116 0.27 0.23 0.435 0.345 0.164 0.114 0.309 0.229 0.434 0.344v0c0.271 0.25 0.39 0.453 0.358 0.609-0.027 0.16-0.108 0.313-0.242 0.459v0c-0.236-0.217-0.531-0.476-0.887-0.776-0.36-0.294-0.675-0.566-0.946-0.816v0c0.163 0.215 0.418 0.483 0.765 0.802 0.341 0.314 0.649 0.63 0.922 0.948v0l-0.374 0.406 0.323 0.298c0.138 0.424 0.082 0.772-0.167 1.043v0c-0.116 0.125-0.283 0.236-0.501 0.332-0.228 0.096-0.424 0.148-0.588 0.154zM225.484 209.389v0c-0.101 0.473-0.122 0.968-0.063 1.487 0.055 0.514 0.093 1.032 0.114 1.553v0c0.038-0.262 0.051-0.514 0.042-0.755-0.005-0.246-0.01-0.492-0.016-0.738-0.001-0.251 0.008-0.512 0.026-0.784 0.013-0.266 0.057-0.55 0.132-0.853v0c0.126 0.014 0.235 0.022 0.327 0.023 0.092 0.011 0.166 0.042 0.221 0.093v0l0.049 1.186c-0.035-0.032-0.1-0.032-0.196 0-0.091 0.028-0.152 0.059-0.184 0.095v0c0.13 0.222 0.19 0.444 0.179 0.666-0.005 0.227-0.02 0.445-0.046 0.654-0.025 0.209-0.045 0.427-0.06 0.655-0.005 0.227 0.057 0.447 0.186 0.658v0l0.06 0.056c0.015 0.014 0.046-0.004 0.092-0.055v0l-0.016-2.52 0.04 0.984c0.015 0.487 0.026 0.989 0.033 1.505 0.002 0.521-0.01 0.993-0.037 1.414-0.026 0.431-0.062 0.671-0.108 0.722v0l-0.058 0.002c-0.151 0.093-0.289 0.207-0.413 0.343-0.125 0.135-0.262 0.269-0.411 0.401v0c-0.146-0.134-0.319-0.253-0.522-0.356-0.207-0.107-0.356-0.203-0.446-0.286v0c-0.09-0.083-0.094-0.17-0.01-0.26v0c-0.05-0.046-0.163-0.095-0.34-0.146-0.176-0.041-0.371-0.096-0.586-0.164-0.22-0.073-0.446-0.156-0.676-0.248-0.226-0.097-0.429-0.229-0.611-0.395v0c-0.181-0.166-0.287-0.404-0.318-0.711-0.032-0.308-0.013-0.625 0.055-0.952 0.064-0.321 0.141-0.621 0.231-0.9 0.095-0.284 0.166-0.487 0.214-0.61v0c0.065-0.07 0.05-0.135-0.044-0.194-0.099-0.054-0.116-0.116-0.051-0.186v0l0.609-0.344c0.058 0.118 0.102 0.368 0.132 0.748 0.03 0.38 0.049 0.657 0.056 0.831v0c0.03-0.214 0.036-0.487 0.017-0.819-0.023-0.337-0.039-0.592-0.046-0.766v0c0.118-0.058 0.227-0.106 0.328-0.144 0.1-0.038 0.166-0.074 0.198-0.109v0l0.001-0.153c0.116-0.125 0.27-0.243 0.464-0.352 0.194-0.1 0.384-0.18 0.57-0.24 0.191-0.056 0.373-0.088 0.546-0.095 0.174-0.007 0.285 0.013 0.336 0.059zM237.671 231.645v0c-0.182-0.195-0.364-0.396-0.546-0.601v0c0.197 0.219 0.379 0.419 0.546 0.601z" fill="#ee3e38" data-fill-palette-color="primary"></path><path d="M250.384 181.482v0c0.122 0.024 0.227-0.078 0.313-0.308v0l0.026-0.067c0.053-0.14 0.101-0.228 0.143-0.263v0c0.813-1.05 1.791-2.033 2.933-2.951 1.149-0.915 2.388-1.665 3.718-2.249 1.334-0.575 2.728-0.923 4.182-1.045 1.458-0.112 2.895 0.099 4.312 0.636v0c1.238 0.468 2.338 1.158 3.299 2.069 0.968 0.913 1.712 1.954 2.234 3.121v0c-0.425-1.153-1.107-2.203-2.048-3.149-0.934-0.944-2.055-1.664-3.364-2.159v0c-1.462-0.553-2.945-0.76-4.449-0.622-1.504 0.139-2.943 0.499-4.316 1.082-1.371 0.576-2.64 1.318-3.807 2.225-1.168 0.908-2.158 1.847-2.97 2.817v0c0.328-0.868 0.859-1.682 1.591-2.441 0.73-0.753 1.566-1.421 2.509-2.005 0.943-0.584 1.953-1.074 3.03-1.47 1.074-0.389 2.126-0.662 3.155-0.82v0l0.254 0.37c0.857-0.201 1.733-0.271 2.629-0.209 0.887 0.066 1.755 0.259 2.604 0.58v0c1.628 0.616 2.922 1.503 3.885 2.662 0.956 1.157 1.641 2.423 2.055 3.798 0.407 1.373 0.578 2.772 0.512 4.199-0.072 1.425-0.32 2.699-0.745 3.822v0c-0.241 0.638-0.552 1.258-0.933 1.858-0.387 0.598-0.865 1.168-1.435 1.711v0l0.201 0.076c0.612-0.498 1.112-1.06 1.502-1.686 0.396-0.623 0.72-1.267 0.972-1.93v0c0.623-1.647 0.874-3.401 0.754-5.264-0.12-1.862-0.627-3.59-1.52-5.182v0c0.955 1.565 1.513 3.272 1.675 5.12 0.166 1.857-0.072 3.632-0.712 5.324v0c-0.659 1.742-1.53 3.022-2.612 3.838-1.085 0.823-2.233 1.351-3.445 1.586-1.212 0.235-2.406 0.246-3.581 0.035-1.184-0.207-2.21-0.475-3.078-0.803v0c-1.168-0.442-2.251-1.03-3.25-1.766-1.007-0.731-1.858-1.597-2.553-2.596-0.697-0.993-1.193-2.122-1.487-3.386-0.295-1.264-0.312-2.657-0.051-4.178v0l-0.616 0.905c-0.296 0.435-0.564 0.728-0.802 0.878-0.237 0.144-0.413 0.194-0.528 0.151v0c-0.185-0.07-0.31-0.347-0.375-0.831-0.065-0.484-0.002-0.978 0.189-1.483zM253.742 184.755l0.382-0.085c0.004-0.706 0.115-1.346 0.333-1.921v0c0.215-0.568 0.468-0.976 0.758-1.223 0.288-0.241 0.525-0.327 0.71-0.257v0c0.115 0.043 0.19 0.221 0.225 0.534 0.041 0.315 0.104 0.718 0.188 1.209 0.09 0.494 0.229 1.043 0.417 1.646 0.192 0.612 0.492 1.226 0.902 1.841 0.406 0.606 0.96 1.195 1.663 1.767 0.699 0.563 1.588 1.049 2.666 1.457v0c1.576 0.596 2.901 0.692 3.973 0.288 1.066-0.407 1.838-1.242 2.316-2.505v0c0.302-0.798 0.474-1.667 0.515-2.607 0.042-0.94-0.061-1.844-0.31-2.711-0.242-0.865-0.65-1.647-1.224-2.346-0.575-0.699-1.318-1.221-2.231-1.566v0c-0.689-0.261-1.423-0.403-2.202-0.428-0.775-0.016-1.558 0.067-2.349 0.25-0.787 0.191-1.565 0.473-2.334 0.846-0.771 0.38-1.48 0.837-2.128 1.373v0c-0.621 0.524-1.109 0.963-1.462 1.318-0.357 0.346-0.66 0.578-0.909 0.696v0c0.022 0.213 0.034 0.509 0.036 0.889-0.004 0.378 0.017 0.889 0.065 1.535zM253.191 181.526l0.185 0.234c0.743-0.923 1.641-1.736 2.695-2.439v0c0.931-0.589 1.89-1.091 2.878-1.504v0c-1.023 0.372-1.992 0.83-2.905 1.374v0c-1.072 0.616-2.023 1.394-2.853 2.335zM267.605 179.526v0c0.604 0.622 1.077 1.348 1.419 2.178v0c-0.12-0.512-0.32-0.986-0.6-1.42-0.281-0.434-0.582-0.815-0.904-1.14-0.319-0.332-0.622-0.604-0.907-0.814v0c-0.273-0.184-0.494-0.333-0.662-0.448v0c0.506 0.476 1.057 1.024 1.654 1.644zM271.433 178.347v0c0.037 0.036 0.07 0.085 0.097 0.147v0c0.016 0.035 0.019 0.066 0.01 0.091v0c-0.007 0.019-0.107-0.084-0.299-0.31-0.189-0.232-0.414-0.507-0.673-0.824-0.257-0.323-0.532-0.646-0.826-0.969v0c-0.214-0.263-0.411-0.466-0.592-0.607v0c0.862 0.691 1.623 1.515 2.283 2.472zM266.598 174.319v0c0.364 0.138 0.716 0.296 1.057 0.476 0.334 0.177 0.629 0.38 0.886 0.609v0c-0.514-0.377-1.125-0.699-1.834-0.967v0c-0.523-0.198-1.054-0.348-1.592-0.449v0c-0.461-0.094-0.92-0.162-1.379-0.205v0c0.458 0.042 0.909 0.096 1.351 0.161v0c0.503 0.059 1.007 0.184 1.511 0.375zM253.256 181.989l-0.426-0.435-0.25 0.255c0.037 0.036 0.069 0.088 0.094 0.156 0.028 0.062 0.064 0.101 0.109 0.118v0c0.051 0.019 0.126 0.015 0.224-0.014 0.105-0.026 0.188-0.053 0.249-0.08zM259.274 177.71v0c-0.122 0.034-0.231 0.07-0.325 0.107v0c0.12-0.028 0.228-0.063 0.325-0.107zM269.15 175.875v0c-0.035-0.042-0.078-0.073-0.129-0.092v0c0.051 0.019 0.094 0.05 0.129 0.092zM268.969 175.719v0c0.016 0.035 0.033 0.056 0.052 0.064v0c-0.019-0.007-0.037-0.028-0.052-0.064z" fill="#ee3e38" data-fill-palette-color="primary"></path></g></svg></g></svg></g></svg></g><g></g></svg></g><defs></defs></svg><rect width="280" height="280" fill="none" stroke="none" visibility="hidden"></rect></g></svg></g></svg>