<?xml version="1.0" encoding="utf-8"?>
<!-- Generator: Adobe Illustrator 19.2.1, SVG Export Plug-In . SVG Version: 6.00 Build 0)  -->
<svg version="1.1" id="layer" xmlns="http://www.w3.org/2000/svg" xmlns:xlink="http://www.w3.org/1999/xlink" x="0px" y="0px"
	 viewBox="0 0 652 652" style="enable-background:new 0 0 652 652;" xml:space="preserve">
<style type="text/css">
	.st0{fill:#14443B;}
	.st1{fill:#89C040;}
</style>
<g>
	<path class="st0" d="M138.3,344.4h36.4v13.4h-51.2v-44l47.3,0v13.4h-32.6V344.4z M123.6,297.9h49.2v-13.4h-49.2L123.6,297.9z
		 M89,357.9h14.7v-44H89V357.9z M103.7,284.5v13.4H87.5L68,357.9H55.8l-19.1-58.7v58.7H22v-73.3h24l16.3,51.1l16.4-51.1H103.7z
		 M384.9,284.5l-27.3,41.7l-0.2,0.2v31.4h-14.7v-31.4l-27.5-41.9h18.3l16.5,29.1l17.4-29.1H384.9z M294.6,344.1
		c2.5-1.3,4.6-3.2,6.3-5.5l12.3,9.2c-3,3.9-6.7,6.9-11.2,8.8c-4.6,2-9.6,3.1-14.7,3.1c-5.7,0-11.1-0.9-15.9-2.7
		c-4.8-1.8-9-4.4-12.5-7.7c-3.5-3.3-6.3-7.4-8.2-12.2c-2-4.7-3-10.1-3-16c0-5.9,1-11.3,3-16c2-4.7,4.7-8.8,8.2-12.2
		c3.5-3.3,7.7-5.9,12.5-7.7c4.8-1.8,10.2-2.7,15.9-2.7c2.1,0,4.2,0.2,6.5,0.6c2.3,0.4,4.5,1,6.6,1.8c2.2,0.8,4.3,2,6.2,3.3
		c1.8,1.2,3.4,2.7,4.7,4.3l-11.3,9.3c-1.6-1.8-3.6-3.2-5.7-4.1c-2.5-1.1-5.4-1.7-8.6-1.7c-3.2,0-6.3,0.6-9,1.9
		c-2.7,1.2-5.2,3-7.2,5.3c-2,2.2-3.6,4.9-4.7,8c-1.1,3.1-1.7,6.4-1.7,10c0,3.6,0.6,7,1.7,10c1.1,3,2.7,5.7,4.7,7.9
		c2,2.2,4.4,4,7,5.3c2.7,1.3,5.7,1.9,8.7,1.9C288.7,346.4,291.9,345.6,294.6,344.1L294.6,344.1z M219.9,314.5
		c-1.5,0.6-3.2,0.9-4.8,1c-1.6,0.1-3.2,0.2-4.8,0.2h-10.7v-19h11.8c1.5,0,3.1,0.1,4.7,0.3c1.6,0.2,3.1,0.7,4.4,1.3
		c1.3,0.7,2.5,1.7,3.3,2.9c0.9,1.3,1.3,3,1.3,5.1c0,2.3-0.5,4.1-1.5,5.4C222.7,312.9,221.4,313.9,219.9,314.5z M225,326.1
		c5-0.9,8.9-3.2,11.5-6.7c2.6-3.5,4-7.9,4-13c0-4.2-0.7-7.8-2.2-10.6c-1.4-2.8-3.4-5-5.9-6.7c-2.5-1.7-5.4-2.9-8.7-3.6
		c-3.5-0.7-7.1-1.1-10.7-1.1h-28.2v73.3h14.7v-30.1h9.7l16.4,30.1h17.7l-19.7-31.5L225,326.1L225,326.1z"/>
	<g>
		<path class="st1" d="M117.9,301.8c0,0-1.1-17.2-2.4-29h-3.7c-1.3,11.8-2.4,29-2.4,29s-11,1-20.4,2.3v3.7
			c10.4,1.2,20.4,1.8,20.4,1.8s0.1,24.8,2.4,60.1h3.7c2.3-35.3,2.4-60.1,2.4-60.1s10-0.6,20.4-1.8v-3.7
			C128.9,302.7,117.9,301.8,117.9,301.8L117.9,301.8z M548.5,284.5h46.1v8.1h-37.4v23h34.9v8.1h-34.9v26.1h39.3v8.1h-48L548.5,284.5
			L548.5,284.5z M473.3,284.5h11l42.5,60.9h0.2v-60.9h8.7v73.3h-11L482.2,297H482v60.9h-8.7V284.5z M424.3,351.7
			c4.3,0,8.2-0.8,11.8-2.4c3.5-1.5,6.6-3.7,9.2-6.5c2.6-2.8,4.5-6,6-9.7c1.4-3.7,2.1-7.6,2.1-11.9c0-4.2-0.7-8.2-2.1-11.9
			c-1.4-3.7-3.4-6.9-6-9.7c-2.6-2.8-5.7-5-9.2-6.5c-3.6-1.6-7.5-2.4-11.8-2.4c-4.3,0-8.2,0.8-11.8,2.4c-3.5,1.5-6.6,3.7-9.2,6.5
			c-2.6,2.8-4.5,6-6,9.7c-1.4,3.7-2.1,7.7-2.1,11.9c0,4.2,0.7,8.2,2.1,11.9c1.4,3.7,3.4,6.9,6,9.7c2.6,2.8,5.7,5,9.2,6.5
			C416,350.9,420,351.7,424.3,351.7z M424.3,359.7c-5.6,0-10.7-1-15.4-2.9c-4.7-1.9-8.7-4.6-12.1-8c-3.4-3.4-6.1-7.5-8-12.2
			c-1.9-4.7-2.8-9.9-2.8-15.4c0-5.5,0.9-10.7,2.8-15.4c1.9-4.7,4.6-8.8,8-12.2c3.4-3.4,7.5-6.1,12.1-8c4.7-1.9,9.8-2.9,15.4-2.9
			c5.6,0,10.7,1,15.4,2.9c4.7,1.9,8.7,4.6,12.1,8c3.4,3.4,6.1,7.5,8,12.2c1.9,4.7,2.8,9.9,2.8,15.4c0,5.5-1,10.7-2.8,15.4
			c-1.9,4.7-4.6,8.8-8,12.2c-3.4,3.4-7.5,6.1-12.1,8C435,358.8,429.8,359.7,424.3,359.7z"/>
		<path class="st1" d="M611.4,348.1h2.7l2.5,6.9h0l2.5-6.9h2.7v9.8h-1.7V350h0l-3,7.9H616l-2.9-7.9h0v7.9h-1.7L611.4,348.1z
			 M608.5,350.2c-0.4-0.5-1.1-0.8-1.8-0.8c-0.8,0-1.7,0.4-1.7,1.3c0,0.9,0.8,1.2,1.9,1.5c1.3,0.4,2.9,0.9,2.9,2.9
			c0,2.1-1.6,3.1-3.6,3.1c-1.3,0-2.6-0.5-3.4-1.4l1.2-1.2c0.5,0.7,1.4,1.1,2.1,1.1c0.8,0,1.8-0.4,1.8-1.5c0-1-1-1.3-2.2-1.7
			c-1.2-0.4-2.5-1-2.5-2.8c0-2,1.8-2.9,3.6-2.9c1,0,2.1,0.3,2.8,1L608.5,350.2z"/>
	</g>
</g>
</svg>
